<svg width="27" height="27" viewBox="0 0 27 27" fill="none" xmlns="http://www.w3.org/2000/svg">
<rect x="0.5" y="0.5" width="26" height="26" rx="13" fill="white"/>
<path d="M13.5 7.5C14.2956 7.5 15.0587 7.81607 15.6213 8.37868C16.1839 8.94129 16.5 9.70435 16.5 10.5C16.5 11.2956 16.1839 12.0587 15.6213 12.6213C15.0587 13.1839 14.2956 13.5 13.5 13.5C12.7044 13.5 11.9413 13.1839 11.3787 12.6213C10.8161 12.0587 10.5 11.2956 10.5 10.5C10.5 9.70435 10.8161 8.94129 11.3787 8.37868C11.9413 7.81607 12.7044 7.5 13.5 7.5ZM13.5 15C16.815 15 19.5 16.3425 19.5 18V19.5H7.5V18C7.5 16.3425 10.185 15 13.5 15Z" fill="#002C3E"/>
</svg>
