<svg width="249" height="43" viewBox="0 0 249 43" fill="none" xmlns="http://www.w3.org/2000/svg">
<path d="M249.671 42.1092H94.9288L111.172 -0.21167H249.671V42.1092Z" fill="#002C3E"/>
<path d="M76.1043 11.6297L78.4405 14.1943L83.5951 9.49671C82.6387 8.06627 76.7984 0.0676306 65.6088 0.0676306C60.2679 0.0591666 55.1217 2.0821 51.2197 5.72169C47.25 9.35282 44.2452 14.3721 41.342 19.2136C38.7351 23.5642 36.0435 28.0332 32.734 31.402C30.1185 34.0512 26.5043 35.3971 22.0183 35.3971C14.1805 35.3971 7.81547 29.0405 7.81547 21.1942C7.81547 13.3479 14.1805 6.99132 22.0183 6.99132C28.6373 6.99132 33.0471 11.8413 34.6299 13.8642L38.4219 7.74463C31.0157 -1.28664 17.6847 -2.61551 8.64496 4.79063C-0.386307 12.1968 -1.71518 25.5278 5.69096 34.5676C9.70298 39.4599 15.6871 42.3038 22.0183 42.3123C28.3326 42.3123 33.7412 40.2216 37.6516 36.2435C41.5621 32.2653 44.4568 27.4577 47.2754 22.7516C50.094 18.0455 52.6671 13.7542 55.9173 10.7833C61.6475 5.43391 70.6365 5.73862 75.9858 11.4689C76.0282 11.5112 76.062 11.5535 76.1043 11.5958V11.6212V11.6297Z" fill="#FBB516"/>
<path d="M63.9922 19.3407V26.2644H78.8807L78.6945 26.7046C76.4853 31.9777 71.3222 35.4057 65.6004 35.3888C63.806 35.3888 60.869 34.7624 57.1193 31.7661C55.8836 30.7758 54.724 29.6839 53.6744 28.499L49.8148 34.7455C51.8716 37.1578 57.2463 42.3125 65.6174 42.3125C70.8821 42.4141 75.986 40.535 79.9133 37.0393C83.2059 34.1869 85.5081 30.3695 86.49 26.129C87.0486 23.9114 87.2179 21.6091 87.0063 19.3323H63.9922V19.3407Z" fill="#FBB516"/>
<path d="M131.291 35.4309V6.46655H137.664V35.4225H131.291V35.4309Z" fill="white"/>
<path d="M158.012 12.3407V35.4225H151.639V12.3407H142.827V6.46655H166.823V12.3407H158.012Z" fill="white"/>
<path d="M194.374 35.4309V16.522L186.223 28.8881H186.054L177.988 16.6405V35.4225H171.699V6.46655H178.563L186.172 18.7142L193.782 6.46655H200.646V35.4225H194.357L194.374 35.4309Z" fill="white"/>
<path d="M227.765 30.691C227.241 31.8083 226.521 32.7478 225.59 33.5011C224.659 34.2629 223.542 34.8385 222.255 35.2363C220.96 35.6341 219.53 35.8372 217.955 35.8372C215.746 35.8372 213.588 35.4563 211.463 34.703C209.339 33.9413 207.409 32.7817 205.674 31.2073L209.44 26.6959C210.761 27.7709 212.124 28.6258 213.512 29.2606C214.908 29.8954 216.432 30.2086 218.082 30.2086C219.403 30.2086 220.435 29.9631 221.163 29.4806C221.891 28.9982 222.264 28.3295 222.264 27.4746V27.39C222.264 26.9753 222.187 26.6113 222.035 26.2897C221.883 25.9765 221.595 25.6802 221.163 25.4009C220.732 25.1216 220.139 24.8508 219.377 24.5714C218.616 24.2921 217.625 24.0043 216.415 23.6996C214.951 23.3441 213.622 22.9378 212.428 22.4977C211.235 22.0576 210.228 21.5159 209.398 20.8641C208.569 20.2124 207.925 19.4083 207.468 18.4434C207.011 17.4785 206.783 16.2766 206.783 14.8461V14.7615C206.783 13.4411 207.028 12.2476 207.519 11.1811C208.01 10.1231 208.704 9.20051 209.593 8.43027C210.482 7.66003 211.548 7.06754 212.784 6.6528C214.02 6.23805 215.382 6.03491 216.872 6.03491C218.996 6.03491 220.943 6.35655 222.729 6.9829C224.507 7.61771 226.14 8.53184 227.63 9.71682L224.32 14.516C223.025 13.6357 221.756 12.9417 220.512 12.4254C219.267 11.9175 218.032 11.6636 216.787 11.6636C215.543 11.6636 214.612 11.909 213.994 12.383C213.376 12.8655 213.063 13.4664 213.063 14.1859V14.2705C213.063 14.7361 213.156 15.1424 213.334 15.4894C213.512 15.8364 213.842 16.1411 214.307 16.4204C214.781 16.6998 215.425 16.9621 216.237 17.2076C217.05 17.4531 218.082 17.7493 219.327 18.0794C220.791 18.4688 222.103 18.9004 223.246 19.3829C224.397 19.8654 225.362 20.4409 226.149 21.1181C226.936 21.7952 227.528 22.5908 227.935 23.4965C228.341 24.4021 228.536 25.494 228.536 26.7637V26.8483C228.536 28.2787 228.273 29.5568 227.757 30.6741L227.765 30.691Z" fill="white"/>
</svg>
