<svg width="142" height="25" viewBox="0 0 142 25" fill="none" xmlns="http://www.w3.org/2000/svg">
<g clip-path="url(#clip0_975_10333)">
<path d="M141.577 24.38H53.8232L63.0344 0.380005H141.577V24.38Z" fill="white"/>
<path d="M43.1479 7.09508L44.4727 8.54948L47.3959 5.88548C46.8535 5.07428 43.5415 0.53828 37.1959 0.53828C34.1671 0.53348 31.2487 1.68068 29.0359 3.74468C26.7847 5.80388 25.0807 8.65028 23.4343 11.3959C21.9559 13.8631 20.4295 16.3975 18.5527 18.3079C17.0695 19.8103 15.0199 20.5735 12.4759 20.5735C8.03108 20.5735 4.42148 16.9687 4.42148 12.5191C4.42148 8.06948 8.03108 4.46468 12.4759 4.46468C16.2295 4.46468 18.7303 7.21508 19.6279 8.36228L21.7783 4.89188C17.5783 -0.22972 10.0183 -0.98332 4.89188 3.21668C-0.22972 7.41668 -0.983321 14.9767 3.21668 20.1031C5.49188 22.8775 8.88548 24.4903 12.4759 24.4951C16.0567 24.4951 19.1239 23.3095 21.3415 21.0535C23.5591 18.7975 25.2007 16.0711 26.7991 13.4023C28.3975 10.7335 29.8567 8.29988 31.6999 6.61508C34.9495 3.58148 40.0471 3.75428 43.0807 7.00388C43.1047 7.02788 43.1239 7.05188 43.1479 7.07588V7.09028V7.09508Z" fill="#FBB516"/>
<path d="M36.2793 11.468V15.3944H44.7225L44.6169 15.644C43.3641 18.6344 40.4361 20.5784 37.1913 20.5688C36.1737 20.5688 34.5081 20.2136 32.3817 18.5144C31.6809 17.9528 31.0233 17.3336 30.4281 16.6616L28.2393 20.204C29.4057 21.572 32.4537 24.4952 37.2009 24.4952C40.1865 24.5528 43.0809 23.4872 45.3081 21.5048C47.1753 19.8872 48.4809 17.7224 49.0377 15.3176C49.3545 14.06 49.4505 12.7544 49.3305 11.4632H36.2793V11.468Z" fill="#FBB516"/>
<path d="M74.444 20.5928V4.16724H78.0584V20.588H74.444V20.5928Z" fill="#002C3E"/>
<path d="M89.5975 7.49844V20.588H85.9831V7.49844H80.9863V4.16724H94.5943V7.49844H89.5975Z" fill="#002C3E"/>
<path d="M110.218 20.5928V9.86964L105.596 16.8824H105.5L100.926 9.93684V20.588H97.3591V4.16724H101.252L105.567 11.1128L109.882 4.16724H113.775V20.588H110.209L110.218 20.5928Z" fill="#002C3E"/>
<path d="M129.154 17.9048C128.857 18.5384 128.449 19.0712 127.921 19.4984C127.393 19.9304 126.759 20.2568 126.03 20.4824C125.295 20.708 124.484 20.8232 123.591 20.8232C122.338 20.8232 121.114 20.6072 119.91 20.18C118.705 19.748 117.61 19.0904 116.626 18.1976L118.762 15.6392C119.511 16.2488 120.284 16.7336 121.071 17.0936C121.863 17.4536 122.727 17.6312 123.663 17.6312C124.412 17.6312 124.998 17.492 125.41 17.2184C125.823 16.9448 126.034 16.5656 126.034 16.0808V16.0328C126.034 15.7976 125.991 15.5912 125.905 15.4088C125.818 15.2312 125.655 15.0632 125.41 14.9048C125.166 14.7464 124.83 14.5928 124.398 14.4344C123.966 14.276 123.404 14.1128 122.718 13.94C121.887 13.7384 121.134 13.508 120.457 13.2584C119.78 13.0088 119.209 12.7016 118.738 12.332C118.268 11.9624 117.903 11.5064 117.644 10.9592C117.385 10.412 117.255 9.73042 117.255 8.91922V8.87122C117.255 8.12242 117.394 7.44562 117.673 6.84082C117.951 6.24082 118.345 5.71762 118.849 5.28082C119.353 4.84402 119.958 4.50802 120.658 4.27282C121.359 4.03762 122.132 3.92242 122.977 3.92242C124.182 3.92242 125.286 4.10482 126.298 4.46002C127.306 4.82002 128.233 5.33842 129.078 6.01042L127.201 8.73202C126.466 8.23282 125.746 7.83922 125.041 7.54642C124.335 7.25842 123.634 7.11442 122.929 7.11442C122.223 7.11442 121.695 7.25362 121.345 7.52242C120.994 7.79602 120.817 8.13682 120.817 8.54482V8.59282C120.817 8.85682 120.87 9.08722 120.97 9.28402C121.071 9.48082 121.258 9.65362 121.522 9.81202C121.791 9.97042 122.156 10.1192 122.617 10.2584C123.078 10.3976 123.663 10.5656 124.369 10.7528C125.199 10.9736 125.943 11.2184 126.591 11.492C127.244 11.7656 127.791 12.092 128.238 12.476C128.684 12.86 129.02 13.3112 129.25 13.8248C129.481 14.3384 129.591 14.9576 129.591 15.6776V15.7256C129.591 16.5368 129.442 17.2616 129.15 17.8952L129.154 17.9048Z" fill="#002C3E"/>
</g>
<defs>
<clipPath id="clip0_975_10333">
<rect width="140.64" height="24" fill="white" transform="translate(0.5 0.5)"/>
</clipPath>
</defs>
</svg>
