<svg width="293" height="50" viewBox="0 0 293 50" fill="none" xmlns="http://www.w3.org/2000/svg">
<g clip-path="url(#clip0_758_6195)">
<path d="M293.91 49.75H111.09L130.28 -0.25H293.91V49.75Z" fill="#002C3E"/>
<path d="M88.85 13.74L91.61 16.77L97.7 11.22C96.57 9.53 89.67 0.0800035 76.45 0.0800035C70.14 0.0700035 64.06 2.46 59.45 6.76C54.76 11.05 51.21 16.98 47.78 22.7C44.7 27.84 41.52 33.12 37.61 37.1C34.52 40.23 30.25 41.82 24.95 41.82C15.69 41.82 8.17003 34.31 8.17003 25.04C8.17003 15.77 15.69 8.26 24.95 8.26C32.77 8.26 37.98 13.99 39.85 16.38L44.33 9.15C35.58 -1.52 19.83 -3.09 9.15003 5.66C-1.51997 14.41 -3.08997 30.16 5.66003 40.84C10.4 46.62 17.47 49.98 24.95 49.99C32.41 49.99 38.8 47.52 43.42 42.82C48.04 38.12 51.46 32.44 54.79 26.88C58.12 21.32 61.16 16.25 65 12.74C71.77 6.42 82.39 6.78 88.71 13.55C88.76 13.6 88.8 13.65 88.85 13.7V13.73V13.74Z" fill="#FBB516"/>
<path d="M74.54 22.85V31.03H92.13L91.91 31.55C89.3 37.78 83.2 41.83 76.44 41.81C74.32 41.81 70.85 41.07 66.42 37.53C64.96 36.36 63.59 35.07 62.35 33.67L57.79 41.05C60.22 43.9 66.57 49.99 76.46 49.99C82.68 50.11 88.71 47.89 93.35 43.76C97.24 40.39 99.96 35.88 101.12 30.87C101.78 28.25 101.98 25.53 101.73 22.84H74.54V22.85Z" fill="#FBB516"/>
<path d="M154.05 41.86V7.64001H161.58V41.85H154.05V41.86Z" fill="white"/>
<path d="M185.62 14.58V41.85H178.09V14.58H167.68V7.64001H196.03V14.58H185.62Z" fill="white"/>
<path d="M228.58 41.86V19.52L218.95 34.13H218.75L209.22 19.66V41.85H201.79V7.64001H209.9L218.89 22.11L227.88 7.64001H235.99V41.85H228.56L228.58 41.86Z" fill="white"/>
<path d="M268.03 36.26C267.41 37.58 266.56 38.69 265.46 39.58C264.36 40.48 263.04 41.16 261.52 41.63C259.99 42.1 258.3 42.34 256.44 42.34C253.83 42.34 251.28 41.89 248.77 41C246.26 40.1 243.98 38.73 241.93 36.87L246.38 31.54C247.94 32.81 249.55 33.82 251.19 34.57C252.84 35.32 254.64 35.69 256.59 35.69C258.15 35.69 259.37 35.4 260.23 34.83C261.09 34.26 261.53 33.47 261.53 32.46V32.36C261.53 31.87 261.44 31.44 261.26 31.06C261.08 30.69 260.74 30.34 260.23 30.01C259.72 29.68 259.02 29.36 258.12 29.03C257.22 28.7 256.05 28.36 254.62 28C252.89 27.58 251.32 27.1 249.91 26.58C248.5 26.06 247.31 25.42 246.33 24.65C245.35 23.88 244.59 22.93 244.05 21.79C243.51 20.65 243.24 19.23 243.24 17.54V17.44C243.24 15.88 243.53 14.47 244.11 13.21C244.69 11.96 245.51 10.87 246.56 9.96C247.61 9.05 248.87 8.35 250.33 7.86C251.79 7.37 253.4 7.13 255.16 7.13C257.67 7.13 259.97 7.51 262.08 8.25C264.18 9 266.11 10.08 267.87 11.48L263.96 17.15C262.43 16.11 260.93 15.29 259.46 14.68C257.99 14.08 256.53 13.78 255.06 13.78C253.59 13.78 252.49 14.07 251.76 14.63C251.03 15.2 250.66 15.91 250.66 16.76V16.86C250.66 17.41 250.77 17.89 250.98 18.3C251.19 18.71 251.58 19.07 252.13 19.4C252.69 19.73 253.45 20.04 254.41 20.33C255.37 20.62 256.59 20.97 258.06 21.36C259.79 21.82 261.34 22.33 262.69 22.9C264.05 23.47 265.19 24.15 266.12 24.95C267.05 25.75 267.75 26.69 268.23 27.76C268.71 28.83 268.94 30.12 268.94 31.62V31.72C268.94 33.41 268.63 34.92 268.02 36.24L268.03 36.26Z" fill="white"/>
</g>
<defs>
<clipPath id="clip0_758_6195">
<rect width="293" height="50" fill="white"/>
</clipPath>
</defs>
</svg>
