<svg width="27" height="27" viewBox="0 0 27 27" fill="none" xmlns="http://www.w3.org/2000/svg">
<path fill-rule="evenodd" clip-rule="evenodd" d="M15.6667 22.1666C15.6667 23.3583 14.6917 24.3333 13.5 24.3333C12.2975 24.3333 11.3334 23.3583 11.3334 22.1666H15.6667ZM20 12.4166V17.8333L22.1667 19.9999V21.0833H4.83337V19.9999L7.00004 17.8333V12.4166C7.00004 9.07992 8.76587 6.30659 11.875 5.56992V4.83325C11.875 3.93409 12.6009 3.20825 13.5 3.20825C14.3992 3.20825 15.125 3.93409 15.125 4.83325V5.56992C15.6958 5.70563 16.2218 5.91084 16.7 6.17613C15.9951 6.78295 15.5488 7.68178 15.5488 8.68486C15.5488 10.5123 17.0303 11.9938 18.8578 11.9938C19.2514 11.9938 19.6291 11.9251 19.9793 11.7989C19.9931 12.0024 20 12.2084 20 12.4166Z" fill="white"/>
<ellipse cx="18.8577" cy="8.68483" rx="2.32619" ry="2.32618" fill="#FFB81C"/>
</svg>
