<svg width="65" height="58" viewBox="0 0 65 58" fill="none" xmlns="http://www.w3.org/2000/svg">
<path d="M7.0996 10.1152C6.26712 9.25095 6.33554 7.86378 7.24903 7.08569C8.15603 6.31314 9.52514 6.45781 10.2506 7.40286L19.3911 19.3094C19.7934 19.8336 19.7144 20.5811 19.2114 21.0095C18.7122 21.4347 17.9683 21.398 17.5133 20.9257L7.0996 10.1152Z" fill="#1E1E1D"/>
<path d="M18.0478 11.3564C18.7656 10.701 18.8242 9.56455 18.0127 9.02941C16.9526 8.33026 15.7148 7.92197 14.4248 7.8633C12.543 7.77773 10.7042 8.44321 9.31304 9.71335C7.92187 10.9835 7.09224 12.7543 7.00666 14.6361C6.948 15.9261 7.24227 17.1958 7.8423 18.315C8.30159 19.1717 9.43864 19.2166 10.1565 18.5612L14.1021 14.9588L18.0478 11.3564Z" fill="#FBC70E"/>
<path d="M22.0771 56.2584C21.3407 57.1863 19.9602 57.2654 19.1226 56.4278C18.2958 55.601 18.3606 54.2419 19.2622 53.4974L24.2385 49.3887C24.7565 48.9611 25.5146 48.9972 25.9896 49.4722C26.4577 49.9403 26.5004 50.6851 26.0888 51.2036L22.0771 56.2584Z" fill="#1E1E1D"/>
<path d="M48.6384 54.012C49.344 54.9634 49.0632 56.3173 48.0373 56.9096C47.0247 57.4942 45.7287 57.0799 45.243 56.0163L42.5622 50.1462C42.2832 49.5352 42.5143 48.8122 43.096 48.4764C43.6694 48.1453 44.3998 48.2969 44.7942 48.8286L48.6384 54.012Z" fill="#1E1E1D"/>
<path d="M51.6145 4.89808C52.06 3.78388 53.3526 3.27588 54.4374 3.78864C55.5146 4.29775 55.9457 5.60525 55.3825 6.65517L48.2874 19.8829C47.9751 20.4652 47.2612 20.7006 46.6638 20.4182C46.0709 20.138 45.7985 19.4448 46.042 18.8358L51.6145 4.89808Z" fill="#1E1E1D"/>
<path d="M54.9848 15.3885C55.8774 15.7734 56.9373 15.3595 57.0915 14.3998C57.2929 13.1459 57.1561 11.8497 56.6792 10.6497C55.9834 8.89913 54.6207 7.49664 52.8909 6.75077C51.1611 6.0049 49.2058 5.97676 47.4552 6.67252C46.2552 7.14947 45.2188 7.9398 44.4453 8.94697C43.8532 9.71788 44.2799 10.7728 45.1725 11.1577L50.0786 13.2731L54.9848 15.3885Z" fill="#FBC70E"/>
<circle cx="33.5647" cy="33.1204" r="16.9705" fill="#FEFDFD"/>
<rect x="32.0322" y="7.73584" width="3.06489" height="3.36986" fill="#1E1E1D"/>
<rect x="29.7752" y="5.34033" width="7.579" height="3.36986" rx="1.29684" fill="#AAAAAA"/>
<path fill-rule="evenodd" clip-rule="evenodd" d="M33.5647 55.4872C45.9173 55.4872 55.9311 45.4734 55.9311 33.1208C55.9311 20.7682 45.9173 10.7544 33.5647 10.7544C21.2121 10.7544 11.1983 20.7682 11.1983 33.1208C11.1983 45.4734 21.2121 55.4872 33.5647 55.4872ZM33.5647 49.2843C42.4915 49.2843 49.7282 42.0476 49.7282 33.1208C49.7282 24.194 42.4915 16.9574 33.5647 16.9574C24.6379 16.9574 17.4013 24.194 17.4013 33.1208C17.4013 42.0476 24.6379 49.2843 33.5647 49.2843Z" fill="#EB3013"/>
<rect x="33.2637" y="18.2075" width="0.602106" height="2.22316" fill="#1E1E1D"/>
<rect x="33.2637" y="45.3999" width="0.602106" height="2.22316" fill="#1E1E1D"/>
<rect x="48.2723" y="32.6143" width="0.602106" height="2.22316" transform="rotate(90 48.2723 32.6143)" fill="#1E1E1D"/>
<rect x="21.0803" y="32.6143" width="0.602106" height="2.22316" transform="rotate(90 21.0803 32.6143)" fill="#1E1E1D"/>
<rect x="41.0706" y="45.5669" width="0.602106" height="2.22316" transform="rotate(150.493 41.0706 45.5669)" fill="#1E1E1D"/>
<rect x="27.6778" y="21.9019" width="0.602106" height="2.22316" transform="rotate(150.493 27.6778 21.9019)" fill="#1E1E1D"/>
<rect x="26.5891" y="45.8667" width="0.602106" height="2.22316" transform="rotate(-150.521 26.5891 45.8667)" fill="#1E1E1D"/>
<rect x="39.9704" y="22.1953" width="0.602106" height="2.22316" transform="rotate(-150.521 39.9704 22.1953)" fill="#1E1E1D"/>
<rect x="20.9972" y="40.561" width="0.602106" height="2.22316" transform="rotate(-120.143 20.9972 40.561)" fill="#1E1E1D"/>
<rect x="44.5121" y="26.9062" width="0.602106" height="2.22316" transform="rotate(-120.143 44.5121 26.9062)" fill="#1E1E1D"/>
<rect x="20.9806" y="25.2964" width="0.602106" height="2.22316" transform="rotate(-57.6359 20.9806 25.2964)" fill="#1E1E1D"/>
<rect x="43.9487" y="39.8525" width="0.602106" height="2.22316" transform="rotate(-57.6359 43.9487 39.8525)" fill="#1E1E1D"/>
<rect x="32.9046" y="22.9624" width="1.89895" height="11.0695" rx="0.949476" fill="#1E1E1D"/>
<path fill-rule="evenodd" clip-rule="evenodd" d="M35.9147 33.84C35.9147 35.0131 34.9637 35.9641 33.7905 35.9641C33.3769 35.9641 32.991 35.8459 32.6645 35.6415C32.6071 35.6915 32.5426 35.7353 32.4717 35.7714L26.4236 38.8525C25.9563 39.0905 25.3846 38.9047 25.1466 38.4375C24.9085 37.9702 25.0944 37.3985 25.5616 37.1604L31.6097 34.0793C31.6318 34.0681 31.654 34.0579 31.6765 34.0485C31.6698 33.9799 31.6664 33.9103 31.6664 33.84C31.6664 32.6668 32.6174 31.7158 33.7905 31.7158C34.9637 31.7158 35.9147 32.6668 35.9147 33.84ZM34.6614 33.84C34.6614 34.321 34.2715 34.7109 33.7905 34.7109C33.3095 34.7109 32.9196 34.321 32.9196 33.84C32.9196 33.359 33.3095 32.9691 33.7905 32.9691C34.2715 32.9691 34.6614 33.359 34.6614 33.84Z" fill="#EB3013"/>
<circle cx="33.8254" cy="33.8873" r="0.978152" fill="#FEFDFD"/>
<path fill-rule="evenodd" clip-rule="evenodd" d="M62.1596 14.2449C62.4503 12.1444 62.1211 10.0047 61.2124 8.08878L60.4435 6.46757C60.301 6.16712 60.4291 5.80803 60.7295 5.66554C61.03 5.52304 61.3891 5.65109 61.5316 5.95155L62.3004 7.57275C63.3097 9.7007 63.6753 12.0771 63.3524 14.41L63.0895 16.3097C63.044 16.6391 62.74 16.8691 62.4106 16.8236C62.0812 16.778 61.8511 16.474 61.8967 16.1446L62.1596 14.2449Z" fill="#AAAAAA"/>
<path fill-rule="evenodd" clip-rule="evenodd" d="M59.464 14.3329C59.7342 12.3804 59.4282 10.3916 58.5836 8.61065C58.4411 8.31019 58.5692 7.95111 58.8696 7.80861C59.1701 7.66612 59.5291 7.79417 59.6716 8.09462C60.6168 10.0875 60.9592 12.3131 60.6569 14.4979L60.6465 14.5729C60.6009 14.9023 60.2969 15.1324 59.9675 15.0868C59.6381 15.0412 59.4081 14.7372 59.4537 14.4078L59.464 14.3329Z" fill="#AAAAAA"/>
<path fill-rule="evenodd" clip-rule="evenodd" d="M54.9719 50.6846C56.5124 49.2275 57.5938 47.3521 58.0831 45.2888L58.4971 43.5429C58.5739 43.2193 58.8984 43.0193 59.2219 43.096C59.5455 43.1727 59.7456 43.4972 59.6688 43.8208L59.2548 45.5667C58.7114 47.8582 57.5104 49.9411 55.7993 51.5595L54.4061 52.8773C54.1645 53.1058 53.7834 53.0952 53.5549 52.8537C53.3264 52.6121 53.337 52.231 53.5786 52.0025L54.9719 50.6846Z" fill="#AAAAAA"/>
<path fill-rule="evenodd" clip-rule="evenodd" d="M52.8136 49.0673C54.2456 47.7129 55.2508 45.9697 55.7056 44.0518C55.7823 43.7282 56.1068 43.5281 56.4304 43.6049C56.7539 43.6816 56.954 44.0061 56.8773 44.3297C56.3683 46.4758 55.2435 48.4265 53.6411 49.9422L53.5862 49.9942C53.3446 50.2227 52.9635 50.2121 52.735 49.9705C52.5065 49.7289 52.5171 49.3478 52.7587 49.1193L52.8136 49.0673Z" fill="#AAAAAA"/>
<path fill-rule="evenodd" clip-rule="evenodd" d="M2.90447 13.6264C2.67921 15.735 3.07478 17.8634 4.04258 19.7501L4.86149 21.3467C5.01325 21.6425 4.89643 22.0054 4.60055 22.1572C4.30466 22.309 3.94177 22.1921 3.79001 21.8963L2.9711 20.2997C1.89623 18.2042 1.45689 15.8403 1.70707 13.4985L1.91079 11.5916C1.94611 11.2609 2.24279 11.0215 2.57345 11.0568C2.9041 11.0922 3.14351 11.3888 3.10819 11.7195L2.90447 13.6264Z" fill="#AAAAAA"/>
<path fill-rule="evenodd" clip-rule="evenodd" d="M5.59595 13.4546C5.38657 15.4145 5.75426 17.3929 6.65384 19.1466C6.80561 19.4425 6.68878 19.8054 6.3929 19.9572C6.09702 20.109 5.73413 19.9921 5.58236 19.6962C4.5757 17.7337 4.16425 15.5198 4.39855 13.3266L4.40659 13.2514C4.44191 12.9208 4.73859 12.6813 5.06925 12.7167C5.3999 12.752 5.63931 13.0487 5.60399 13.3793L5.59595 13.4546Z" fill="#AAAAAA"/>
<path fill-rule="evenodd" clip-rule="evenodd" d="M9.0257 45.4037C9.63565 47.4346 10.8256 49.2431 12.4493 50.607L13.8232 51.7611C14.0778 51.975 14.1108 52.3548 13.8969 52.6094C13.683 52.864 13.3032 52.897 13.0486 52.6832L11.6747 51.5291C9.87138 50.0143 8.54982 48.0057 7.87238 45.7501L7.32073 43.9133C7.22508 43.5949 7.40572 43.2591 7.7242 43.1635C8.04268 43.0678 8.3784 43.2485 8.47405 43.567L9.0257 45.4037Z" fill="#AAAAAA"/>
<path fill-rule="evenodd" clip-rule="evenodd" d="M11.4401 44.2019C12.007 46.0896 13.1131 47.7706 14.6223 49.0384C14.8769 49.2523 14.91 49.6321 14.6961 49.8867C14.4822 50.1413 14.1024 50.1744 13.8478 49.9605C12.1589 48.5418 10.9212 46.6607 10.2867 44.5483L10.265 44.4758C10.1693 44.1573 10.35 43.8216 10.6684 43.7259C10.9869 43.6303 11.3226 43.8109 11.4183 44.1294L11.4401 44.2019Z" fill="#AAAAAA"/>
</svg>
