<svg width="57" height="56" viewBox="0 0 57 56" fill="none" xmlns="http://www.w3.org/2000/svg">
<rect x="22.8807" y="32.1152" width="10.8971" height="8.66717" transform="rotate(1.69809 22.8807 32.1152)" fill="#837683"/>
<path d="M21.3487 32.623L15.814 39.3205C15.2023 40.0609 14.0006 39.687 13.9167 38.7303L12.8519 26.5816C12.8183 26.198 12.9927 25.8257 13.3089 25.606L21.4256 19.967L21.3487 32.623Z" fill="#FFB81C"/>
<path d="M35.2855 32.9794L40.6497 39.8142C41.2426 40.5697 42.4533 40.2262 42.5613 39.2719L43.9317 27.1538C43.9749 26.7712 43.81 26.3947 43.4994 26.1671L35.5273 20.3254L35.2855 32.9794Z" fill="#FFB81C"/>
<rect x="23.8287" y="42.3508" width="1.98009" height="6.34836" rx="0.990045" transform="rotate(1.42905 23.8287 42.3508)" fill="#F9AC0C"/>
<rect x="27.1459" y="42.4717" width="1.98009" height="8.44208" rx="0.990045" transform="rotate(1.42905 27.1459 42.4717)" fill="#F9AC0C"/>
<rect x="30.3862" y="42.6653" width="1.98009" height="6.34836" rx="0.990045" transform="rotate(1.42905 30.3862 42.6653)" fill="#F9AC0C"/>
<path d="M36.8068 35.1903L19.6122 34.7614C17.7912 24.3071 18.2017 12.8129 29.2279 0.284593C40.015 13.9207 37.9808 27.679 36.8068 35.1903Z" fill="#002C3F"/>
<path d="M24.3846 6.74265C25.706 4.62142 27.3056 2.46873 29.2279 0.284605C30.935 2.44264 32.3211 4.60374 33.4402 6.74265L24.3846 6.74265Z" fill="#FFB81C"/>
<path d="M36.8069 35.1901L19.6123 34.7612C19.3772 33.4116 19.1793 32.0446 19.0367 30.6603L37.3335 31.521C37.168 32.864 36.9783 34.0936 36.8069 35.1901Z" fill="#D1D1D6"/>
<circle cx="28.5708" cy="16.9089" r="3.57844" transform="rotate(-43.571 28.5708 16.9089)" fill="#83CEF6"/>
</svg>
