<svg width="59" height="45" viewBox="0 0 59 45" fill="none" xmlns="http://www.w3.org/2000/svg">
<path fill-rule="evenodd" clip-rule="evenodd" d="M42.6061 15.7701C42.2113 14.4004 41.6128 13.1158 40.9436 11.8647C39.9858 10.0739 38.8256 8.41908 37.4461 6.93035C36.1982 5.58396 34.7569 4.47256 33.1885 3.51155C31.3735 2.4006 29.4231 1.64236 27.3501 1.21803C24.8825 0.712685 22.4734 0.963341 20.0879 1.79006C17.7933 2.58546 15.9075 3.91976 14.2421 5.66094C11.1794 8.86265 9.4091 12.6915 8.56479 16.9916C8.42979 17.6787 8.35567 18.3774 8.32715 19.0779C8.27854 20.2833 8.2516 21.4873 8.32295 22.6945C8.50338 25.7409 9.30141 28.5912 10.8911 31.2169C11.8379 32.7809 13.1136 34.0179 14.5345 35.1302C15.0351 35.5224 15.5381 35.9104 16.0754 36.2515C16.2151 36.6311 16.6196 36.6538 16.8909 36.8562C18.3969 37.6342 20.0345 37.9426 21.6895 38.1266C25.2836 38.5266 28.7078 37.9591 31.9066 36.2068C32.5684 35.8441 33.0756 35.3308 33.5233 34.7423C35.5764 31.8014 36.5544 28.5272 36.55 24.9509C36.5446 20.1897 35.0187 15.9697 31.8605 12.4135C30.1442 10.4803 27.9833 9.36621 25.2802 9.36531C23.2579 9.36486 21.6049 10.1495 20.0906 11.3379C17.6777 13.2308 16.5272 15.8381 16.1609 18.7968C15.895 20.9462 16.0784 23.0911 17.2119 25.0046C18.539 27.2444 20.3193 28.9054 23.0409 29.353C25.0361 29.6807 26.5514 29.046 27.84 27.529C29.7126 25.3246 29.9144 21.973 28.5531 19.6495C27.7638 18.3013 26.6696 17.3721 25.0612 17.1671C24.8131 17.1357 24.5752 17.1442 24.3349 17.206C23.2839 17.4777 22.1845 18.8151 22.1915 19.8016C22.1941 20.1575 22.2919 20.4735 22.4938 20.7635C22.869 21.3025 23.3294 21.759 23.8288 22.1704C23.164 21.9627 22.6618 21.5384 22.2594 20.9681C21.7339 20.2237 21.7226 19.431 22.0864 18.65C22.4352 17.8998 22.9907 17.2973 23.7107 16.8649C24.6498 16.3018 25.6115 16.4652 26.5291 16.8712C28.6262 17.8004 29.6852 19.5465 30.0666 21.7156C30.6074 24.7902 29.4446 27.2364 27.1053 29.186C26.0769 30.0437 24.865 30.2089 23.563 30.1274C19.0431 29.8459 15.6198 25.2451 15.3731 21.3459C15.2203 18.927 15.6266 16.6639 16.6302 14.5052C17.5034 12.6275 18.8731 11.158 20.6737 10.1061C21.6803 9.51705 22.7217 9.00589 23.8872 8.84878C26.6368 8.47637 29.1353 9.03543 31.2831 10.8872C33.7305 12.9967 35.2783 15.677 36.246 18.714C36.8727 20.6807 37.2558 22.7017 37.165 24.779C37.0294 27.8819 36.3423 30.8444 34.7918 33.5699C34.6486 33.8224 34.4717 34.07 34.5371 34.3886C34.7318 34.5561 34.9359 34.4597 35.1382 34.4096C36.7044 34.023 38.0879 33.2208 39.4957 32.4773C39.869 32.2808 40.2521 32.0991 40.6129 31.8771C41.6482 30.9779 42.175 29.7622 42.6365 28.5255C43.5724 26.0189 43.9189 23.4084 43.7837 20.7474C43.7049 19.1996 43.3656 17.6836 42.9028 16.2002C42.8482 16.0257 42.7761 15.8641 42.6061 15.7701Z" fill="#5CB16F"/>
<path fill-rule="evenodd" clip-rule="evenodd" d="M42.6056 15.77C43.0125 16.953 43.2886 18.1651 43.4856 19.4027C43.6422 20.3888 43.6749 21.3735 43.6633 22.3649C43.6499 23.5041 43.4722 24.6249 43.2694 25.7413C43.0093 27.1722 42.5608 28.5432 41.9181 29.8484C41.5569 30.5821 41.111 31.257 40.5274 31.8345C40.2731 32.0055 40.2132 32.2884 40.1438 32.551C39.8197 33.7847 38.989 34.44 37.771 34.6539C36.8221 34.8208 35.9103 35.1399 34.9663 35.3253C34.6812 35.3817 34.4776 35.5527 34.2833 35.7662C33.3688 36.7662 32.4122 37.7056 31.1893 38.3546C29.7479 39.1201 28.2178 39.5422 26.6102 39.6277C23.348 39.7996 20.3685 38.8561 17.5972 37.1816C17.3466 37.0298 17.0679 36.9255 16.8416 36.734C16.5862 36.5728 16.3303 36.4121 16.0749 36.2514C15.5284 36.4913 14.935 36.4614 14.3613 36.536C12.6835 36.7555 10.9917 36.8127 9.30686 36.9559C7.86303 37.0781 6.45585 37.4246 5.0655 37.8387C4.03337 38.146 3.02206 38.498 2.07739 39.0211C1.93733 39.0986 1.774 39.1433 1.67191 39.2816C1.7198 39.9069 2.14766 40.2193 2.65699 40.4454C3.53313 40.8348 4.47538 40.975 5.41535 41.0663C7.05452 41.2256 8.68671 41.4396 10.3243 41.6106C12.2201 41.8089 14.1144 42.0218 16.0162 42.171C17.3798 42.278 18.7445 42.3799 20.1048 42.5254C20.6739 42.5864 21.246 42.5478 21.8167 42.55C23.073 42.5549 24.3294 42.5514 25.5855 42.5514C26.2859 42.5514 26.9918 42.6445 27.6835 42.6244C30.7758 42.5376 33.8773 42.6212 36.9541 42.1876C40.0856 41.7457 42.8894 40.5613 45.4712 38.7159C47.9724 36.9282 50.0085 34.6986 51.9453 32.3648C52.7747 31.3654 53.3745 30.185 53.994 29.0355C54.071 28.8937 54.1153 28.7311 54.2415 28.6189C54.4076 28.3853 54.434 28.1024 54.5114 27.84C55.0942 25.8541 55.6246 23.855 55.9572 21.8095C56.2669 19.9049 56.4043 17.9856 56.2727 16.0596C56.1841 14.7736 55.7571 13.574 55.104 12.4635C54.9675 12.2308 54.9604 12.0911 55.1363 11.8691C55.8659 10.9461 56.4625 9.9332 57.0498 8.91579C57.1791 8.69155 57.3089 8.54697 57.6066 8.53399C58.0385 8.51429 58.3635 8.24931 58.6012 7.8975C58.906 7.44676 59.008 6.94231 58.94 6.40473C58.9275 6.30939 58.8943 6.21451 58.8599 6.12454C58.5739 5.37122 57.6827 5.06953 56.8461 5.20292C56.1452 5.31482 55.6367 5.88776 55.6246 6.64421C55.6192 6.98394 55.4979 7.2149 55.2947 7.4669C54.6999 8.20366 54.2317 9.02993 53.7084 9.81727C53.6449 9.91261 53.5759 10.0039 53.5209 10.1042C53.4116 10.3029 53.2957 10.3472 53.1006 10.1879C52.4113 9.62614 51.5993 9.35489 50.7354 9.2036C50.0372 9.08141 49.3393 9.09931 48.6424 9.18839C48.1657 9.24836 48.1451 9.24523 48.078 8.78241C47.9339 7.80037 47.728 6.82772 47.6152 5.84031C47.5664 5.41642 47.5637 5.05163 47.8412 4.65192C48.5158 3.68151 47.8649 2.45552 46.6806 2.37138C45.3991 2.28096 44.5106 3.38431 44.9202 4.5521C45.0034 4.79068 45.1346 4.99165 45.3288 5.14921C45.4327 5.23336 45.5235 5.31168 45.5231 5.46521C45.5191 6.54976 45.8342 7.58865 45.9819 8.65171C46.036 9.03933 46.0575 9.43143 46.1287 9.81458C46.1712 10.0442 46.1027 10.1736 45.9237 10.3056C44.8378 11.1082 44.0549 12.1578 43.4605 13.3587C43.14 14.0068 42.9605 14.7011 42.79 15.398C42.7555 15.5381 42.7717 15.6974 42.6056 15.77Z" fill="#8DD256"/>
<path fill-rule="evenodd" clip-rule="evenodd" d="M54.2424 28.6188C54.1058 28.5042 54.0808 28.6439 54.0387 28.7147C53.6148 29.4272 53.1932 30.1407 52.7724 30.8551C52.2774 31.6965 51.7098 32.478 51.0671 33.2203C50.0098 34.44 48.8729 35.5791 47.7405 36.7254C47.2239 37.2487 46.6492 37.6972 46.0481 38.1147C45.2867 38.6424 44.5141 39.1537 43.751 39.6791C42.5411 40.5099 41.1768 40.992 39.7928 41.4258C39.035 41.6634 38.2611 41.8553 37.4756 41.9741C36.7876 42.0766 36.0902 42.132 35.4054 42.2363C34.5312 42.3687 33.6517 42.2278 32.7818 42.3961C32.3885 42.4731 31.9687 42.4123 31.5607 42.4126C30.9574 42.4135 30.3485 42.3652 29.7517 42.4266C29.1022 42.4932 28.4514 42.5518 27.8057 42.5026C25.3311 42.3133 22.853 42.4878 20.3793 42.3951C19.8205 42.3741 19.2486 42.354 18.688 42.2404C18.2612 42.1543 17.815 42.1744 17.38 42.1454C16.7981 42.1056 16.2134 42.0501 15.6343 41.9985C15.1217 41.9535 14.5989 41.973 14.0884 41.8482C13.7448 41.7655 13.3818 41.8003 13.0246 41.7475C12.2413 41.6302 11.4438 41.6114 10.6546 41.5265C10.012 41.4565 9.37486 41.3326 8.73232 41.2649C8.34573 41.2238 7.95846 41.1876 7.57187 41.1429C6.15789 40.979 4.72873 40.924 3.34376 40.5533C3.03025 40.4692 2.73564 40.3349 2.43964 40.1978C2.0312 40.0086 1.91599 39.5958 1.67276 39.2816C1.20349 39.5596 0.919712 39.9427 0.96586 40.5171C0.994909 40.8818 1.17708 41.1388 1.52519 41.2395C2.83953 41.62 4.16363 41.9506 5.52618 42.1225C7.62553 42.3871 9.73294 42.5876 11.8185 42.9628C12.5534 43.0952 13.314 43.0621 14.052 43.1999C15.5588 43.4816 17.0957 43.5178 18.6076 43.759C18.783 43.7872 18.9655 43.7746 19.1449 43.7746C20.9872 43.7823 22.8236 43.9152 24.6595 44.0563C25.1956 44.097 25.733 44.1462 26.2698 44.1444C28.0971 44.1387 29.9192 44.2589 31.738 44.4004C33.1273 44.5079 34.5075 44.4193 35.8893 44.3476C38.0418 44.2362 40.0967 43.6972 42.0684 42.8235C44.6538 41.6786 46.9272 40.1177 48.7843 37.9626C50.3554 36.1395 51.7398 34.1915 52.8409 32.0497C53.3624 31.0351 53.7988 29.9795 54.177 28.9018C54.2083 28.8109 54.2209 28.7128 54.2424 28.6188Z" fill="#7FCE53"/>
<path fill-rule="evenodd" clip-rule="evenodd" d="M34.5702 34.3915C34.6701 34.0255 34.8728 33.7121 35.0532 33.3836C35.8969 31.846 36.4493 30.2021 36.8248 28.4903C37.1287 27.1033 37.2899 25.7054 37.3015 24.2878C37.3154 22.7311 37.037 21.2177 36.6717 19.7142C36.178 17.6839 35.3356 15.8022 34.2113 14.0511C33.5873 13.0785 32.8838 12.156 32.034 11.3646C30.9772 10.3812 29.8119 9.55002 28.4359 9.06929C27.6987 8.81192 26.9364 8.6387 26.1465 8.63825C25.755 8.63735 25.3628 8.64765 24.972 8.63288C24.0093 8.59707 23.1017 8.8249 22.2203 9.18478C20.6441 9.82709 19.2521 10.7465 18.1205 12.0235C17.2725 12.9787 16.5889 14.0489 16.1589 15.261C15.8876 16.0273 15.5964 16.7896 15.4436 17.5926C15.3651 18.007 15.3041 18.4233 15.2713 18.845C15.2319 19.3467 15.1492 19.8458 15.1812 20.3529C15.266 21.6855 15.4153 23.0005 15.9217 24.2587C16.2853 25.1616 16.7858 25.97 17.3811 26.729C18.0997 27.6448 18.9343 28.4416 19.9069 29.0812C20.848 29.6989 21.9056 30.018 23.0127 30.1734C23.3976 30.2271 23.7848 30.2652 24.1761 30.2825C25.4364 30.3399 26.5238 29.9124 27.444 29.0969C28.6053 28.0674 29.5091 26.8423 29.9847 25.3393C30.2467 24.5103 30.3808 23.6558 30.337 22.7919C30.2375 20.835 29.5684 19.1077 28.1294 17.7336C27.2765 16.9189 26.2438 16.4718 25.0673 16.3818C24.2459 16.3191 23.5911 16.7014 23.0019 17.2228C22.6079 17.5711 22.2829 17.9833 22.0348 18.4426C21.4987 19.4345 21.5716 20.5432 22.5303 21.5212C22.9872 21.9876 23.5145 22.3085 24.3067 22.3569C23.8396 22.0386 23.5171 21.7266 23.1954 21.4115C22.9604 21.1819 22.7562 20.9263 22.5749 20.6591C22.217 20.13 22.2044 19.5549 22.4901 18.9913C22.8237 18.3334 23.3755 17.8687 23.9763 17.4713C24.2331 17.3007 24.5536 17.2345 24.8671 17.2672C26.0905 17.3929 27.0743 17.939 27.865 18.8942C28.6051 19.7881 29.0861 20.8014 29.2309 21.9267C29.4694 23.7901 29.2054 25.5671 27.9914 27.1019C27.4632 27.7702 26.8922 28.3896 26.161 28.8422C25.3376 29.3511 24.4183 29.37 23.5073 29.2782C22.5174 29.1787 21.559 28.9205 20.6752 28.4304C20.2444 28.191 19.8489 27.9085 19.488 27.5791C18.8376 26.9842 18.2377 26.3396 17.728 25.6194C17.0896 24.7157 16.6922 23.7068 16.4507 22.6299C16.2759 21.8497 16.223 21.0517 16.1908 20.2625C16.1694 19.754 16.2215 19.2245 16.2815 18.7084C16.3934 17.7515 16.6587 16.8366 16.998 15.9329C17.6409 14.2221 18.5725 12.7347 20.0095 11.5674C20.9834 10.7774 22.0418 10.1637 23.2241 9.75815C23.7035 9.59478 24.1971 9.50928 24.7087 9.51555C25.5704 9.52585 26.4316 9.48915 27.2803 9.70847C28.6321 10.0594 29.8018 10.7223 30.8594 11.63C32.5374 13.0722 33.7091 14.8783 34.6374 16.8495C35.4305 18.533 35.9157 20.3176 36.2438 22.1537C36.4878 23.5166 36.4658 24.8831 36.3974 26.2443C36.3351 27.4909 36.059 28.7178 35.7134 29.9241C35.38 31.0882 34.9015 32.1888 34.3285 33.2502C34.1204 33.6355 33.8657 33.9968 33.628 34.3669C33.5667 34.4619 33.4817 34.5442 33.4906 34.6704C33.5242 34.7031 33.5649 34.7187 33.6115 34.7192C33.7037 34.7143 33.795 34.7054 33.8881 34.7005C34.1298 34.6302 34.4476 34.725 34.5702 34.3915Z" fill="#377149"/>
<path fill-rule="evenodd" clip-rule="evenodd" d="M34.5695 34.3917C34.3206 34.5219 34.0498 34.5664 33.775 34.5971C33.7164 34.6419 33.6349 34.6241 33.5767 34.6692C33.5476 34.6697 33.5185 34.6701 33.4894 34.6706C33.275 34.6898 33.1949 34.8832 33.1093 35.0212C32.7836 35.5452 32.28 35.845 31.7654 36.1221C30.6441 36.7238 29.4858 37.2457 28.2423 37.5428C27.6286 37.6896 27.0039 37.79 26.3833 37.909C25.1113 38.1529 23.8244 38.126 22.5406 38.0956C22.0745 38.0844 21.6104 37.9739 21.1448 37.9108C20.1144 37.7697 19.0963 37.5723 18.109 37.2366C17.6785 37.0899 17.2853 36.8481 16.8418 36.7341C17.1636 37.1378 17.6145 37.3791 18.0478 37.6202C19.475 38.4158 20.9914 39.0101 22.5755 39.4014C23.9845 39.7486 25.4311 39.8794 26.8772 39.7549C28.1559 39.6448 29.4181 39.3673 30.5828 38.8074C31.5778 38.3283 32.5533 37.7967 33.3122 36.9569C33.7043 36.5224 34.1761 36.1634 34.5167 35.6785C34.6134 35.5408 34.7772 35.4915 34.9415 35.4628C35.9633 35.2815 36.9472 34.944 37.969 34.7503C39.1037 34.5354 39.9094 33.8756 40.2303 32.7123C40.3123 32.4151 40.4277 32.1278 40.5276 31.8346C40.1654 31.9402 39.8481 32.1376 39.5209 32.3166C38.0407 33.1264 36.5591 33.9329 34.9065 34.3515C34.7978 34.3796 34.6818 34.3791 34.5695 34.3917Z" fill="#7FCE53"/>
<path fill-rule="evenodd" clip-rule="evenodd" d="M50.7625 19.2063C50.8991 19.2045 51.075 19.2094 51.2509 19.1517C51.4416 19.0895 51.5776 18.9834 51.5821 18.782C51.5861 18.5823 51.4666 18.4503 51.2674 18.4037C50.9049 18.3187 50.545 18.2175 50.1784 18.154C49.5661 18.0488 48.9833 17.8559 48.4108 17.624C48.3356 17.5936 48.2591 17.5672 48.183 17.5399C47.9449 17.4544 47.7676 17.5479 47.6396 17.7422C47.521 17.9221 47.5756 18.1043 47.79 18.2941C47.8504 18.3478 47.9194 18.3935 47.9888 18.4342C48.8316 18.9297 49.7447 19.1812 50.7625 19.2063Z" fill="#488431"/>
<path fill-rule="evenodd" clip-rule="evenodd" d="M53.5448 19.7958C53.8994 19.8012 54.2521 19.5796 54.3156 19.3213C54.3975 18.9861 54.2812 18.6074 53.9307 18.466C53.6281 18.3447 53.3381 18.2113 52.9988 18.3321C52.45 18.5282 52.335 19.0291 52.7499 19.4391C52.9836 19.6696 53.2848 19.7327 53.5448 19.7958Z" fill="#B2E07D"/>
<path fill-rule="evenodd" clip-rule="evenodd" d="M51.8749 16.7687C51.878 17.2316 52.1824 17.5516 52.621 17.5525C53.0615 17.5543 53.4173 17.1635 53.4173 16.6797C53.4169 16.2723 53.0364 15.8793 52.6474 15.8861C52.1833 15.8937 51.8713 16.25 51.8749 16.7687Z" fill="#488431"/>
<path fill-rule="evenodd" clip-rule="evenodd" d="M45.0342 17.0623C45.0315 17.3998 45.1913 17.6057 45.6018 17.7502C45.9827 17.8836 46.3766 18.0398 46.7194 17.667C46.8918 17.4785 46.8971 17.2136 46.753 16.9974C46.5372 16.6733 45.7087 16.4285 45.3533 16.5762C45.1313 16.6675 45.0217 16.8215 45.0342 17.0623Z" fill="#B2E07D"/>
<path fill-rule="evenodd" clip-rule="evenodd" d="M48.2719 15.3834C48.2687 14.9609 47.9621 14.6279 47.566 14.6176C47.1784 14.6064 46.7916 15.0374 46.8051 15.4644C46.818 15.8686 47.1569 16.1936 47.5584 16.1864C47.9818 16.1788 48.2754 15.8485 48.2719 15.3834Z" fill="#488431"/>
<path fill-rule="evenodd" clip-rule="evenodd" d="M33.5762 34.6693C33.655 34.6796 33.7248 34.6661 33.7745 34.5972C33.6953 34.5843 33.6263 34.6018 33.5762 34.6693Z" fill="#5CB16F"/>
</svg>
