<svg width="34" height="26" viewBox="0 0 34 26" fill="none" xmlns="http://www.w3.org/2000/svg">
<path d="M25.25 14.995C26.435 14.995 27.695 15.115 29 15.355V17.605C28.07 17.365 26.81 17.245 25.25 17.245C22.4 17.245 20.165 17.74 18.5 18.73V16.195C20.255 15.4 22.505 14.995 25.25 14.995ZM18.5 12.19C20.435 11.395 22.685 11.005 25.25 11.005C26.435 11.005 27.695 11.11 29 11.35V13.6C28.07 13.36 26.81 13.24 25.25 13.24C22.4 13.24 20.165 13.75 18.5 14.725M25.25 9.25C22.4 9.25 20.165 9.73 18.5 10.75V8.26C20.345 7.42 22.595 7 25.25 7C26.435 7 27.695 7.12 29 7.345V9.67C27.89 9.385 26.615 9.25 25.25 9.25ZM30.5 21.25V4C28.94 3.505 27.185 3.25 25.25 3.25C22.175 3.25 19.43 4 17 5.5V22.75C19.43 21.25 22.175 20.5 25.25 20.5C27.035 20.5 28.79 20.74 30.5 21.25ZM25.25 0.25C28.775 0.25 31.535 1 33.5 2.5V24.34C33.5 24.52 33.425 24.7 33.26 24.865C33.095 25 32.915 25.12 32.75 25.12C32.585 25.12 32.465 25.09 32.375 25.045C30.455 24.01 28.07 23.5 25.25 23.5C22.175 23.5 19.43 24.25 17 25.75C14.99 24.25 12.245 23.5 8.75 23.5C6.26 23.5 3.875 24.04 1.625 25.105C1.58 25.12 1.52 25.12 1.445 25.15C1.385 25.165 1.325 25.18 1.25 25.18C1.085 25.18 0.905 25.12 0.74 25C0.575 24.835 0.5 24.67 0.5 24.475V2.5C2.51 1 5.27 0.25 8.75 0.25C12.245 0.25 14.99 1 17 2.5C19.01 1 21.755 0.25 25.25 0.25Z" fill="#115FB8"/>
</svg>
