<svg width="324" height="293" viewBox="0 0 324 293" fill="none" xmlns="http://www.w3.org/2000/svg">
<path fill-rule="evenodd" clip-rule="evenodd" d="M169.364 290.926C128.796 291.606 85.2477 299.81 53.2024 278.046C18.3303 254.363 -0.41038 215.064 0.832382 176.468C2.04685 138.751 27.1187 105.327 59.5648 80.4531C89.8355 57.2473 129.171 45.2979 169.364 47.2697C207.408 49.1362 240.042 67.5487 267.497 90.6542C295.631 114.332 320.347 142.394 322.882 176.468C325.566 212.549 312.618 250.764 281.153 274.223C251.248 296.519 208.655 290.267 169.364 290.926Z" fill="#496878"/>
<path d="M260.465 278.207H59.7946C59.7175 278.207 59.6435 278.121 59.589 277.969C59.5344 277.817 59.5038 277.611 59.5038 277.396C59.5038 277.18 59.5344 276.974 59.589 276.822C59.6435 276.67 59.7175 276.584 59.7946 276.584H260.465C260.542 276.584 260.616 276.67 260.67 276.822C260.725 276.974 260.755 277.18 260.755 277.396C260.755 277.611 260.725 277.817 260.67 277.969C260.616 278.121 260.542 278.207 260.465 278.207Z" fill="#CCCCCC"/>
<path d="M266.747 180.193H56.947C56.0562 180.193 55.2018 180.577 54.5719 181.259C53.942 181.942 53.5881 182.869 53.5881 183.834C53.5881 184.8 53.942 185.726 54.5719 186.409C55.2018 187.092 56.0562 187.476 56.947 187.476H62.8896V274.592C62.8896 275.557 63.2435 276.484 63.8734 277.166C64.5033 277.849 65.3577 278.233 66.2485 278.233C67.1393 278.233 67.9937 277.849 68.6236 277.166C69.2535 276.484 69.6074 275.557 69.6074 274.592L69.6584 187.476H253.57V274.592C253.57 275.557 253.924 276.484 254.554 277.166C255.184 277.849 256.038 278.233 256.929 278.233C257.82 278.233 258.674 277.849 259.304 277.166C259.934 276.484 260.288 275.557 260.288 274.592V189.396L261.265 187.476H266.747C267.638 187.476 268.492 187.092 269.122 186.409C269.752 185.726 270.106 184.8 270.106 183.834C270.106 182.869 269.752 181.942 269.122 181.259C268.492 180.577 267.638 180.193 266.747 180.193Z" fill="#CCCCCC"/>
<path d="M173.262 182.099H109.711C108.481 182.097 107.301 181.567 106.431 180.623C105.561 179.68 105.071 178.401 105.07 177.067V139.134C105.071 137.8 105.561 136.521 106.431 135.578C107.301 134.634 108.481 134.104 109.711 134.102H173.262C174.493 134.104 175.672 134.634 176.542 135.578C177.413 136.521 177.902 137.8 177.903 139.134V177.067C177.902 178.401 177.413 179.68 176.542 180.623C175.672 181.567 174.493 182.097 173.262 182.099Z" fill="#002C3F"/>
<path d="M173.262 137.975H109.712C109.428 137.976 109.156 138.098 108.956 138.316C108.755 138.533 108.643 138.828 108.642 139.135V177.068C108.643 177.375 108.755 177.67 108.956 177.887C109.156 178.105 109.428 178.227 109.712 178.228H173.262C173.545 178.227 173.817 178.105 174.017 177.887C174.218 177.67 174.331 177.375 174.331 177.068V139.135C174.331 138.828 174.218 138.533 174.017 138.316C173.817 138.098 173.545 137.976 173.262 137.975Z" fill="white"/>
<path d="M146.907 164.831C146.907 164.831 139.299 162.931 135.115 166.415C130.931 169.899 140.44 177.818 140.44 177.818L146.907 164.831Z" fill="#2F2E41"/>
<path d="M141.859 161.24C145.823 161.24 149.035 157.757 149.035 153.46C149.035 149.164 145.823 145.68 141.859 145.68C137.896 145.68 134.683 149.164 134.683 153.46C134.683 157.757 137.896 161.24 141.859 161.24Z" fill="#A0616A"/>
<path d="M136.31 142.539C136.789 141.659 137.483 140.939 138.315 140.459C139.147 139.979 140.085 139.757 141.026 139.819C142.011 139.953 142.971 140.244 143.877 140.684L148.568 142.668C149.782 143.181 151.111 143.81 151.638 145.102C152.127 146.301 151.762 147.686 151.393 148.935L149.638 154.869C149.443 153.526 149.11 152.211 148.643 150.949C148.169 149.679 147.312 148.619 146.212 147.944C144.993 147.266 143.557 147.28 142.189 147.352C140.252 147.453 138.145 147.72 136.769 149.202C136.038 150.043 135.543 151.092 135.34 152.226C135.141 153.355 135.041 154.501 135.041 155.65C134.246 154.17 133.577 152.614 133.041 151.003C132.601 149.803 132.349 148.531 132.298 147.241C132.252 145.94 132.651 144.666 133.417 143.663C133.806 143.173 134.313 142.81 134.882 142.616C135.451 142.422 136.059 142.404 136.637 142.564L136.31 142.539Z" fill="#2F2E41"/>
<path d="M158.994 171.578C158.927 171.315 158.789 171.08 158.599 170.901C158.409 170.723 158.174 170.609 157.924 170.575C157.908 170.563 157.891 170.551 157.873 170.541L147.16 164.033C146.854 163.847 146.494 163.796 146.154 163.891C145.814 163.985 145.522 164.218 145.337 164.541L142.407 169.684L137.994 164.9L137.923 164.824C137.697 164.578 137.398 164.427 137.079 164.397C136.76 164.367 136.441 164.459 136.179 164.658L127.374 171.343C127.359 171.343 127.343 171.348 127.328 171.348C126.906 171.424 126.522 171.654 126.237 171.999C125.952 172.345 125.785 172.785 125.762 173.247L125.535 178.228H160.694L158.994 171.578Z" fill="#28519E"/>
<path d="M178.617 177.454H171.834C171.834 177.248 171.759 177.051 171.625 176.906C171.491 176.761 171.309 176.679 171.12 176.679H168.978C168.788 176.679 168.607 176.761 168.473 176.906C168.339 177.051 168.264 177.248 168.264 177.454H166.122C166.122 177.248 166.046 177.051 165.912 176.906C165.778 176.761 165.597 176.679 165.407 176.679H163.265C163.076 176.679 162.894 176.761 162.76 176.906C162.626 177.051 162.551 177.248 162.551 177.454H160.409C160.409 177.248 160.334 177.051 160.2 176.906C160.066 176.761 159.884 176.679 159.695 176.679H157.553C157.364 176.679 157.182 176.761 157.048 176.906C156.914 177.051 156.839 177.248 156.839 177.454H154.697C154.697 177.248 154.621 177.051 154.488 176.906C154.354 176.761 154.172 176.679 153.983 176.679H151.84C151.651 176.679 151.469 176.761 151.336 176.906C151.202 177.051 151.126 177.248 151.126 177.454H148.984C148.984 177.248 148.909 177.051 148.775 176.906C148.641 176.761 148.46 176.679 148.27 176.679H146.128C145.939 176.679 145.757 176.761 145.623 176.906C145.489 177.051 145.414 177.248 145.414 177.454H143.272C143.272 177.248 143.197 177.051 143.063 176.906C142.929 176.761 142.747 176.679 142.558 176.679H140.416C140.226 176.679 140.045 176.761 139.911 176.906C139.777 177.051 139.702 177.248 139.702 177.454H137.559C137.559 177.248 137.484 177.051 137.35 176.906C137.216 176.761 137.035 176.679 136.845 176.679H134.703C134.514 176.679 134.332 176.761 134.198 176.906C134.064 177.051 133.989 177.248 133.989 177.454H131.847C131.847 177.248 131.772 177.051 131.638 176.906C131.504 176.761 131.322 176.679 131.133 176.679H128.991C128.801 176.679 128.62 176.761 128.486 176.906C128.352 177.051 128.277 177.248 128.277 177.454H126.135C126.135 177.248 126.059 177.051 125.925 176.906C125.792 176.761 125.61 176.679 125.42 176.679H123.278C123.089 176.679 122.907 176.761 122.773 176.906C122.64 177.051 122.564 177.248 122.564 177.454H120.422C120.422 177.248 120.347 177.051 120.213 176.906C120.079 176.761 119.897 176.679 119.708 176.679H117.566C117.377 176.679 117.195 176.761 117.061 176.906C116.927 177.051 116.852 177.248 116.852 177.454H114.71C114.71 177.248 114.634 177.051 114.501 176.906C114.367 176.761 114.185 176.679 113.996 176.679H111.854C111.664 176.679 111.482 176.761 111.349 176.906C111.215 177.051 111.139 177.248 111.139 177.454H104.356C103.788 177.455 103.244 177.7 102.843 178.135C102.442 178.571 102.217 179.161 102.217 179.776C102.217 180.391 102.442 180.981 102.843 181.417C103.244 181.852 103.788 182.097 104.356 182.098H178.617C179.186 182.098 179.73 181.854 180.132 181.418C180.534 180.983 180.76 180.392 180.76 179.776C180.76 179.16 180.534 178.569 180.132 178.134C179.73 177.698 179.186 177.454 178.617 177.454Z" fill="#3F3D56"/>
<path d="M93.3131 163.967V179.388H57.677C56.7222 179.424 55.7705 179.251 54.8786 178.88C53.9868 178.509 53.173 177.946 52.4858 177.227C51.7986 176.507 51.2521 175.645 50.8789 174.692C50.5056 173.738 50.3132 172.713 50.3132 171.677C50.3132 170.642 50.5056 169.617 50.8789 168.663C51.2521 167.71 51.7986 166.848 52.4858 166.128C53.173 165.409 53.9868 164.846 54.8786 164.475C55.7705 164.104 56.7222 163.931 57.677 163.967H93.3131Z" fill="#F2F2F2"/>
<path d="M94.1885 179.269C94.1884 179.426 94.1308 179.577 94.0282 179.688C93.9256 179.799 93.7865 179.862 93.6414 179.862H57.0423C55.0545 179.862 53.1481 179.006 51.7426 177.482C50.337 175.958 49.5474 173.891 49.5474 171.736C49.5474 169.581 50.337 167.515 51.7426 165.991C53.1481 164.467 55.0545 163.611 57.0423 163.611H93.6414C93.7865 163.611 93.9256 163.673 94.0282 163.785C94.1308 163.896 94.1885 164.047 94.1885 164.204C94.1885 164.361 94.1308 164.512 94.0282 164.623C93.9256 164.735 93.7865 164.797 93.6414 164.797H57.0423C55.3457 164.799 53.7191 165.531 52.52 166.832C51.3208 168.133 50.6473 169.897 50.6473 171.736C50.6473 173.576 51.3208 175.34 52.52 176.641C53.7191 177.942 55.3457 178.674 57.0423 178.676H93.6414C93.7865 178.676 93.9256 178.738 94.0282 178.849C94.1308 178.961 94.1884 179.111 94.1885 179.269Z" fill="#28519E"/>
<path d="M93.3132 167.526H55.0181C55.0037 167.526 54.9894 167.523 54.976 167.517C54.9627 167.511 54.9505 167.502 54.9403 167.491C54.93 167.48 54.9219 167.467 54.9164 167.453C54.9108 167.438 54.908 167.423 54.908 167.407C54.908 167.391 54.9108 167.376 54.9164 167.361C54.9219 167.347 54.93 167.334 54.9403 167.323C54.9505 167.312 54.9627 167.303 54.976 167.297C54.9894 167.291 55.0037 167.288 55.0181 167.288H93.3132C93.3421 167.289 93.3697 167.301 93.3901 167.323C93.4105 167.346 93.4219 167.376 93.4219 167.407C93.4219 167.438 93.4105 167.468 93.3901 167.491C93.3697 167.513 93.3421 167.525 93.3132 167.526Z" fill="#CCCCCC"/>
<path d="M93.3132 170.373H55.0181C55.0037 170.373 54.9894 170.37 54.976 170.364C54.9627 170.358 54.9505 170.349 54.9403 170.338C54.93 170.327 54.9219 170.314 54.9164 170.3C54.9108 170.285 54.908 170.27 54.908 170.254C54.908 170.238 54.9108 170.223 54.9164 170.209C54.9219 170.194 54.93 170.181 54.9403 170.17C54.9505 170.159 54.9627 170.15 54.976 170.144C54.9894 170.138 55.0037 170.135 55.0181 170.136H93.3132C93.3421 170.136 93.3697 170.148 93.3901 170.171C93.4105 170.193 93.4219 170.223 93.4219 170.254C93.4219 170.285 93.4105 170.315 93.3901 170.338C93.3697 170.36 93.3421 170.373 93.3132 170.373Z" fill="#CCCCCC"/>
<path d="M93.3132 173.219H55.0181C55.0037 173.22 54.9894 173.217 54.976 173.211C54.9627 173.205 54.9505 173.196 54.9403 173.185C54.93 173.174 54.9219 173.161 54.9164 173.146C54.9108 173.132 54.908 173.116 54.908 173.101C54.908 173.085 54.9108 173.07 54.9164 173.055C54.9219 173.041 54.93 173.028 54.9403 173.017C54.9505 173.006 54.9627 172.997 54.976 172.991C54.9894 172.985 55.0037 172.982 55.0181 172.982H93.3132C93.3421 172.982 93.3697 172.995 93.3901 173.017C93.4105 173.039 93.4219 173.069 93.4219 173.101C93.4219 173.132 93.4105 173.162 93.3901 173.184C93.3697 173.207 93.3421 173.219 93.3132 173.219Z" fill="#CCCCCC"/>
<path d="M93.3132 176.066H55.0181C55.0037 176.066 54.9894 176.063 54.976 176.058C54.9627 176.052 54.9505 176.043 54.9403 176.032C54.93 176.021 54.9219 176.008 54.9164 175.993C54.9108 175.979 54.908 175.963 54.908 175.948C54.908 175.932 54.9108 175.917 54.9164 175.902C54.9219 175.888 54.93 175.875 54.9403 175.864C54.9505 175.853 54.9627 175.844 54.976 175.838C54.9894 175.832 55.0037 175.829 55.0181 175.829H93.3132C93.3421 175.829 93.3697 175.842 93.3901 175.864C93.4105 175.886 93.4219 175.916 93.4219 175.948C93.4219 175.979 93.4105 176.009 93.3901 176.031C93.3697 176.054 93.3421 176.066 93.3132 176.066Z" fill="#CCCCCC"/>
<path d="M86.5954 147.72V163.141H50.9592C50.0044 163.177 49.0527 163.004 48.1609 162.633C47.269 162.262 46.4552 161.7 45.768 160.98C45.0809 160.261 44.5343 159.399 44.1611 158.445C43.7878 157.492 43.5955 156.467 43.5955 155.431C43.5955 154.395 43.7878 153.37 44.1611 152.417C44.5343 151.463 45.0809 150.601 45.768 149.881C46.4552 149.162 47.269 148.6 48.1609 148.229C49.0527 147.857 50.0044 147.684 50.9592 147.72H86.5954Z" fill="#F2F2F2"/>
<path d="M87.4707 163.022C87.4707 163.179 87.413 163.33 87.3104 163.442C87.2079 163.553 87.0687 163.615 86.9236 163.615H50.3245C49.3402 163.615 48.3656 163.405 47.4563 162.997C46.547 162.588 45.7208 161.99 45.0248 161.235C44.3288 160.481 43.7768 159.585 43.4001 158.599C43.0234 157.613 42.8296 156.557 42.8296 155.49C42.8296 154.423 43.0234 153.366 43.4001 152.38C43.7768 151.394 44.3288 150.499 45.0248 149.744C45.7208 148.99 46.547 148.391 47.4563 147.983C48.3656 147.574 49.3402 147.364 50.3245 147.364H86.9236C87.0687 147.364 87.2079 147.427 87.3105 147.538C87.4131 147.649 87.4707 147.8 87.4707 147.957C87.4707 148.115 87.4131 148.266 87.3105 148.377C87.2079 148.488 87.0687 148.55 86.9236 148.55H50.3245C48.6279 148.552 47.0013 149.284 45.8022 150.585C44.6031 151.886 43.9295 153.65 43.9295 155.49C43.9295 157.329 44.6031 159.093 45.8022 160.394C47.0013 161.696 48.6279 162.427 50.3245 162.429H86.9236C87.0687 162.429 87.2078 162.492 87.3104 162.603C87.413 162.714 87.4707 162.865 87.4707 163.022Z" fill="#3F3D56"/>
<path d="M86.5953 151.279H48.3002C48.2858 151.279 48.2715 151.276 48.2581 151.27C48.2448 151.264 48.2326 151.255 48.2224 151.244C48.2121 151.233 48.204 151.22 48.1985 151.206C48.1929 151.191 48.1901 151.176 48.1901 151.16C48.1901 151.144 48.1929 151.129 48.1985 151.115C48.204 151.1 48.2121 151.087 48.2224 151.076C48.2326 151.065 48.2448 151.056 48.2581 151.05C48.2715 151.044 48.2858 151.041 48.3002 151.042H86.5953C86.6242 151.042 86.6518 151.054 86.6722 151.077C86.6926 151.099 86.704 151.129 86.704 151.16C86.704 151.191 86.6926 151.222 86.6722 151.244C86.6518 151.266 86.6242 151.279 86.5953 151.279Z" fill="#CCCCCC"/>
<path d="M86.5953 154.126H48.3002C48.2858 154.126 48.2715 154.123 48.2581 154.117C48.2448 154.111 48.2326 154.102 48.2224 154.091C48.2121 154.08 48.204 154.067 48.1985 154.053C48.1929 154.038 48.1901 154.023 48.1901 154.007C48.1901 153.992 48.1929 153.976 48.1985 153.962C48.204 153.947 48.2121 153.934 48.2224 153.923C48.2326 153.912 48.2448 153.903 48.2581 153.897C48.2715 153.892 48.2858 153.889 48.3002 153.889H86.5953C86.6242 153.889 86.6518 153.901 86.6722 153.924C86.6926 153.946 86.704 153.976 86.704 154.007C86.704 154.039 86.6926 154.069 86.6722 154.091C86.6518 154.113 86.6242 154.126 86.5953 154.126Z" fill="#CCCCCC"/>
<path d="M86.5953 156.973H48.3002C48.2858 156.973 48.2715 156.97 48.2581 156.964C48.2448 156.958 48.2326 156.949 48.2224 156.938C48.2121 156.927 48.204 156.914 48.1985 156.9C48.1929 156.885 48.1901 156.87 48.1901 156.854C48.1901 156.838 48.1929 156.823 48.1985 156.808C48.204 156.794 48.2121 156.781 48.2224 156.77C48.2326 156.759 48.2448 156.75 48.2581 156.744C48.2715 156.738 48.2858 156.735 48.3002 156.735H86.5953C86.6242 156.736 86.6518 156.748 86.6722 156.77C86.6926 156.793 86.704 156.823 86.704 156.854C86.704 156.885 86.6926 156.915 86.6722 156.938C86.6518 156.96 86.6242 156.972 86.5953 156.973Z" fill="#CCCCCC"/>
<path d="M86.5953 159.82H48.3002C48.2858 159.82 48.2715 159.817 48.2581 159.811C48.2448 159.805 48.2326 159.797 48.2224 159.786C48.2121 159.775 48.204 159.761 48.1985 159.747C48.1929 159.733 48.1901 159.717 48.1901 159.701C48.1901 159.686 48.1929 159.67 48.1985 159.656C48.204 159.641 48.2121 159.628 48.2224 159.617C48.2326 159.606 48.2448 159.597 48.2581 159.592C48.2715 159.586 48.2858 159.583 48.3002 159.583H86.5953C86.6242 159.583 86.6518 159.596 86.6722 159.618C86.6926 159.64 86.704 159.67 86.704 159.701C86.704 159.733 86.6926 159.763 86.6722 159.785C86.6518 159.807 86.6242 159.82 86.5953 159.82Z" fill="#CCCCCC"/>
<path d="M128.051 234.2V220.754C128.051 220.16 127.833 219.59 127.446 219.17C127.058 218.749 126.532 218.513 125.984 218.513H78.9601C78.4119 218.513 77.8861 218.749 77.4985 219.17C77.1108 219.59 76.8931 220.16 76.8931 220.754V234.2H128.051Z" fill="#CCCCCC"/>
<path d="M128.051 239.242H76.8931V256.609H128.051V239.242Z" fill="#CCCCCC"/>
<path d="M76.8931 261.651V275.097C76.8931 275.691 77.1108 276.261 77.4985 276.681C77.8861 277.101 78.4119 277.338 78.9601 277.338H125.984C126.532 277.338 127.058 277.101 127.446 276.681C127.833 276.261 128.051 275.691 128.051 275.097V261.651H76.8931Z" fill="#CCCCCC"/>
<path d="M102.214 228.598C103.07 228.598 103.764 227.845 103.764 226.917C103.764 225.989 103.07 225.236 102.214 225.236C101.358 225.236 100.664 225.989 100.664 226.917C100.664 227.845 101.358 228.598 102.214 228.598Z" fill="white"/>
<path d="M102.214 251.007C103.07 251.007 103.764 250.254 103.764 249.326C103.764 248.398 103.07 247.646 102.214 247.646C101.358 247.646 100.664 248.398 100.664 249.326C100.664 250.254 101.358 251.007 102.214 251.007Z" fill="white"/>
<path d="M102.297 272.942C103.153 272.942 103.847 272.189 103.847 271.261C103.847 270.333 103.153 269.581 102.297 269.581C101.441 269.581 100.746 270.333 100.746 271.261C100.746 272.189 101.441 272.942 102.297 272.942Z" fill="white"/>
<path d="M122.251 203.183V218.604H86.615C85.6602 218.64 84.7085 218.467 83.8166 218.096C82.9247 217.725 82.111 217.162 81.4238 216.443C80.7366 215.723 80.1901 214.861 79.8169 213.908C79.4436 212.954 79.2512 211.929 79.2512 210.894C79.2512 209.858 79.4436 208.833 79.8169 207.879C80.1901 206.926 80.7366 206.064 81.4238 205.344C82.111 204.625 82.9247 204.062 83.8166 203.691C84.7085 203.32 85.6602 203.147 86.615 203.183H122.251Z" fill="#F2F2F2"/>
<path d="M123.126 218.485C123.126 218.642 123.069 218.793 122.966 218.904C122.863 219.015 122.724 219.078 122.579 219.078H85.9801C84.9954 219.079 84.0201 218.869 83.11 218.461C82.2 218.053 81.373 217.455 80.6764 216.7C79.9798 215.946 79.4271 215.05 79.0501 214.064C78.6731 213.077 78.479 212.02 78.479 210.952C78.479 209.885 78.6731 208.828 79.0501 207.841C79.4271 206.855 79.9798 205.959 80.6764 205.204C81.373 204.45 82.2 203.851 83.11 203.443C84.0201 203.036 84.9954 202.826 85.9801 202.827H122.579C122.724 202.827 122.863 202.889 122.966 203.001C123.069 203.112 123.126 203.263 123.126 203.42C123.126 203.577 123.069 203.728 122.966 203.839C122.863 203.951 122.724 204.013 122.579 204.013H85.9801C84.2835 204.015 82.6569 204.747 81.4578 206.048C80.2587 207.349 79.5851 209.113 79.5851 210.952C79.5851 212.792 80.2587 214.556 81.4578 215.857C82.6569 217.158 84.2835 217.89 85.9801 217.892H122.579C122.724 217.892 122.863 217.954 122.966 218.066C123.069 218.177 123.126 218.328 123.126 218.485Z" fill="#3F3D56"/>
<path d="M122.251 206.742H83.9561C83.9417 206.742 83.9274 206.739 83.914 206.733C83.9006 206.727 83.8885 206.718 83.8782 206.707C83.868 206.696 83.8599 206.683 83.8543 206.669C83.8488 206.654 83.8459 206.639 83.8459 206.623C83.8459 206.608 83.8488 206.592 83.8543 206.578C83.8599 206.563 83.868 206.55 83.8782 206.539C83.8885 206.528 83.9006 206.519 83.914 206.513C83.9274 206.508 83.9417 206.505 83.9561 206.505H122.251C122.28 206.505 122.308 206.517 122.328 206.54C122.348 206.562 122.36 206.592 122.36 206.623C122.36 206.655 122.348 206.685 122.328 206.707C122.308 206.729 122.28 206.742 122.251 206.742Z" fill="#CCCCCC"/>
<path d="M122.251 209.588H83.9561C83.9417 209.588 83.9274 209.585 83.914 209.58C83.9006 209.574 83.8885 209.565 83.8782 209.554C83.868 209.543 83.8599 209.53 83.8543 209.515C83.8488 209.501 83.8459 209.485 83.8459 209.47C83.8459 209.454 83.8488 209.439 83.8543 209.424C83.8599 209.41 83.868 209.397 83.8782 209.386C83.8885 209.374 83.9006 209.366 83.914 209.36C83.9274 209.354 83.9417 209.351 83.9561 209.351H122.251C122.28 209.351 122.308 209.364 122.328 209.386C122.348 209.408 122.36 209.438 122.36 209.47C122.36 209.501 122.348 209.531 122.328 209.553C122.308 209.575 122.28 209.588 122.251 209.588Z" fill="#CCCCCC"/>
<path d="M122.251 212.436H83.9561C83.9417 212.436 83.9274 212.433 83.914 212.427C83.9006 212.421 83.8885 212.412 83.8782 212.401C83.868 212.39 83.8599 212.377 83.8543 212.363C83.8488 212.348 83.8459 212.333 83.8459 212.317C83.8459 212.301 83.8488 212.286 83.8543 212.272C83.8599 212.257 83.868 212.244 83.8782 212.233C83.8885 212.222 83.9006 212.213 83.914 212.207C83.9274 212.201 83.9417 212.198 83.9561 212.198H122.251C122.28 212.199 122.308 212.211 122.328 212.234C122.348 212.256 122.36 212.286 122.36 212.317C122.36 212.348 122.348 212.378 122.328 212.401C122.308 212.423 122.28 212.436 122.251 212.436Z" fill="#CCCCCC"/>
<path d="M122.251 215.282H83.9561C83.9417 215.283 83.9274 215.28 83.914 215.274C83.9006 215.268 83.8885 215.259 83.8782 215.248C83.868 215.237 83.8599 215.224 83.8543 215.209C83.8488 215.195 83.8459 215.179 83.8459 215.164C83.8459 215.148 83.8488 215.133 83.8543 215.118C83.8599 215.104 83.868 215.091 83.8782 215.08C83.8885 215.069 83.9006 215.06 83.914 215.054C83.9274 215.048 83.9417 215.045 83.9561 215.045H122.251C122.28 215.045 122.308 215.058 122.328 215.08C122.348 215.102 122.36 215.132 122.36 215.164C122.36 215.195 122.348 215.225 122.328 215.247C122.308 215.27 122.28 215.282 122.251 215.282Z" fill="#CCCCCC"/>
<path d="M74.2096 102.534V4.21373C74.2108 3.09657 74.6206 2.02553 75.3493 1.23558C76.0779 0.445629 77.0658 0.00127073 78.0963 0H149.784C150.815 0.00127813 151.802 0.445639 152.531 1.23559C153.26 2.02554 153.67 3.09657 153.671 4.21373V102.534C153.67 103.651 153.26 104.722 152.531 105.512C151.802 106.302 150.815 106.746 149.784 106.748H78.0963C77.0658 106.746 76.0779 106.302 75.3493 105.512C74.6206 104.722 74.2108 103.651 74.2096 102.534ZM78.0963 0.936386C77.2948 0.937358 76.5264 1.28296 75.9597 1.89737C75.393 2.51178 75.0742 3.34482 75.0733 4.21373V102.534C75.0742 103.403 75.393 104.236 75.9597 104.85C76.5264 105.465 77.2948 105.81 78.0963 105.811H149.784C150.586 105.81 151.354 105.465 151.921 104.85C152.487 104.236 152.806 103.403 152.807 102.534V4.21373C152.806 3.34483 152.487 2.51178 151.921 1.89737C151.354 1.28296 150.586 0.93736 149.784 0.936386H78.0963Z" fill="#E6E6E6"/>
<path d="M117.96 45.153V24.9648C117.961 24.4062 118.166 23.8707 118.53 23.4757C118.894 23.0807 119.388 22.8585 119.904 22.8579H135.684C136.199 22.8585 136.693 23.0807 137.057 23.4757C137.421 23.8707 137.626 24.4062 137.627 24.9648V45.153C137.626 45.7116 137.421 46.2471 137.057 46.6421C136.693 47.0371 136.199 47.2593 135.684 47.2599H119.904C119.388 47.2593 118.894 47.0371 118.53 46.6421C118.166 46.2471 117.961 45.7116 117.96 45.153Z" fill="#28519E"/>
<path d="M87.2985 54.5172V34.329C87.299 33.7704 87.504 33.2349 87.8683 32.8399C88.2326 32.4449 88.7266 32.2228 89.2418 32.2222H105.022C105.537 32.2228 106.031 32.4449 106.395 32.8399C106.76 33.2349 106.965 33.7704 106.965 34.329V54.5173C106.965 55.0759 106.76 55.6114 106.395 56.0064C106.031 56.4014 105.537 56.6235 105.022 56.6241H89.2418C88.7266 56.6235 88.2326 56.4013 87.8683 56.0064C87.504 55.6114 87.299 55.0758 87.2985 54.5172Z" fill="#CCCCCC"/>
<path d="M111.914 83.0766V62.8884C111.915 62.3298 112.12 61.7942 112.484 61.3993C112.848 61.0043 113.342 60.7821 113.858 60.7815H129.638C130.153 60.7821 130.647 61.0043 131.011 61.3993C131.375 61.7942 131.58 62.3298 131.581 62.8884V83.0766C131.58 83.6352 131.375 84.1707 131.011 84.5657C130.647 84.9607 130.153 85.1828 129.638 85.1835H113.858C113.342 85.1828 112.848 84.9607 112.484 84.5657C112.12 84.1707 111.915 83.6352 111.914 83.0766Z" fill="#FFB81C"/>
<path d="M206.214 175.376H189.978C189.824 175.376 189.672 175.414 189.534 175.488L185.436 177.712C185.301 177.774 185.186 177.878 185.105 178.011C185.024 178.143 184.981 178.298 184.981 178.457C184.981 178.616 185.024 178.772 185.105 178.904C185.186 179.037 185.301 179.14 185.436 179.202L189.534 181.427C189.672 181.5 189.824 181.539 189.978 181.539H206.214C206.438 181.553 206.658 181.471 206.826 181.31C206.995 181.15 207.098 180.924 207.114 180.681V176.233C207.098 175.991 206.995 175.765 206.826 175.605C206.658 175.444 206.438 175.362 206.214 175.376Z" fill="#002C3F"/>
<path d="M207.114 176.233V180.681C207.098 180.924 206.995 181.149 206.826 181.31C206.658 181.47 206.438 181.552 206.215 181.538H202.98V175.376H206.215C206.438 175.362 206.658 175.444 206.826 175.604C206.995 175.765 207.098 175.991 207.114 176.233Z" fill="#28519E"/>
<path d="M206.092 142.098C206.828 141.754 207.622 141.582 208.423 141.594C209.224 141.606 210.013 141.801 210.74 142.167C211.466 142.533 212.113 143.061 212.638 143.717C213.164 144.372 213.555 145.141 213.787 145.972C213.859 146.236 213.915 146.504 213.952 146.776L236.657 158.982L241.912 155.207L248.45 163.367L240.427 170.432C239.462 171.274 238.272 171.758 237.034 171.809C235.796 171.861 234.575 171.479 233.553 170.719L210.517 153.448C210.346 153.527 210.171 153.596 209.993 153.655C209.226 153.907 208.419 153.98 207.624 153.869C206.83 153.759 206.065 153.468 205.382 153.015C204.698 152.562 204.111 151.958 203.658 151.242C203.205 150.526 202.896 149.714 202.753 148.859C202.71 148.611 202.682 148.361 202.669 148.109C202.605 146.848 202.899 145.596 203.511 144.521C204.123 143.447 205.024 142.601 206.092 142.098Z" fill="#FFB8B8"/>
<path d="M253.382 217.252H228.573C228.573 218.026 203.004 218.653 203.004 218.653C202.603 218.981 202.237 219.357 201.914 219.773C200.943 221.029 200.412 222.617 200.415 224.255V225.376C200.416 227.233 201.097 229.014 202.308 230.327C203.519 231.64 205.162 232.378 206.875 232.379H253.382C255.095 232.377 256.737 231.639 257.948 230.326C259.159 229.013 259.84 227.233 259.842 225.376V224.255C259.839 222.399 259.158 220.619 257.947 219.306C256.736 217.994 255.095 217.255 253.382 217.252Z" fill="#3F3D56"/>
<path d="M226.396 279.16H233.114V232.1H226.396V279.16Z" fill="#3F3D56"/>
<path d="M207.276 278.904C207.276 279.691 217.456 279.208 230.013 279.208C242.571 279.208 252.75 279.691 252.75 278.904C252.75 278.117 242.571 271.876 230.013 271.876C217.456 271.876 207.276 278.117 207.276 278.904Z" fill="#3F3D56"/>
<path d="M213.34 273.388L207.006 273.387L203.991 255.574L213.341 255.574L213.34 273.388Z" fill="#FFB8B8"/>
<path d="M214.956 280.046L194.529 280.045V279.765C194.529 278.633 194.734 277.512 195.134 276.466C195.534 275.42 196.119 274.47 196.858 273.669C197.596 272.869 198.472 272.234 199.437 271.801C200.402 271.368 201.436 271.145 202.48 271.145H202.48L214.957 271.145L214.956 280.046Z" fill="#2F2E41"/>
<path d="M203.865 262.341L191.235 231.636C190.181 229.048 190.064 226.125 190.909 223.448C191.753 220.771 193.497 218.537 195.792 217.191L223.187 201.265L235.688 200.112L247.219 198.976L247.302 199.129C247.408 199.323 249.888 203.966 248.212 209.057C246.94 212.918 243.634 215.935 238.384 218.022C226.129 222.893 211.973 227.057 206.456 228.62C206.212 228.688 205.984 228.811 205.787 228.98C205.59 229.15 205.429 229.364 205.313 229.606C205.197 229.846 205.128 230.109 205.111 230.378C205.094 230.648 205.128 230.919 205.212 231.174L216.945 259.754C217.068 260.116 217.112 260.504 217.074 260.888C217.036 261.272 216.918 261.642 216.728 261.968C216.538 262.294 216.281 262.569 215.977 262.771C215.674 262.973 215.331 263.096 214.977 263.132L206.209 263.824C206.135 263.831 206.061 263.835 205.987 263.835C205.538 263.835 205.099 263.694 204.722 263.429C204.345 263.164 204.048 262.786 203.865 262.341Z" fill="#002C3F"/>
<path d="M216.441 273.388L210.106 273.387L207.092 255.574L216.442 255.574L216.441 273.388Z" fill="#FFB8B8"/>
<path d="M218.057 280.046L197.629 280.045V279.765C197.629 278.633 197.835 277.512 198.235 276.466C198.634 275.42 199.22 274.47 199.958 273.669C200.696 272.869 201.573 272.234 202.538 271.801C203.502 271.368 204.536 271.145 205.58 271.145H205.581L218.057 271.145L218.057 280.046Z" fill="#2F2E41"/>
<path d="M207.482 264.022L194.853 233.317C193.798 230.729 193.681 227.805 194.526 225.128C195.37 222.452 197.114 220.218 199.41 218.872L226.804 202.946L239.305 201.793L250.836 200.657L250.919 200.809C251.026 201.004 253.505 205.647 251.829 210.738C250.558 214.599 247.251 217.615 242.001 219.702C229.747 224.574 215.59 228.737 210.073 230.301C209.829 230.368 209.601 230.491 209.404 230.661C209.207 230.831 209.046 231.044 208.93 231.287C208.814 231.526 208.746 231.789 208.728 232.059C208.711 232.329 208.745 232.6 208.829 232.855L220.562 261.435C220.685 261.797 220.729 262.185 220.691 262.569C220.654 262.953 220.535 263.322 220.345 263.649C220.155 263.975 219.898 264.25 219.594 264.451C219.291 264.653 218.949 264.777 218.594 264.812L209.827 265.504C209.752 265.512 209.678 265.516 209.604 265.516C209.155 265.516 208.716 265.375 208.339 265.109C207.963 264.844 207.665 264.466 207.482 264.022Z" fill="#002C3F"/>
<path d="M201.188 170.222C195.88 162.569 191.685 154.08 188.747 145.05C188.576 144.51 188.589 143.922 188.781 143.391C188.973 142.859 189.333 142.419 189.797 142.149L207.958 131.599C208.252 131.427 208.578 131.33 208.911 131.315C209.245 131.3 209.577 131.368 209.883 131.514C210.194 131.661 210.471 131.882 210.691 132.162C210.912 132.442 211.07 132.773 211.155 133.13C213.269 141.831 217.242 149.87 222.754 156.598C222.981 156.872 223.147 157.198 223.24 157.552C223.333 157.906 223.35 158.279 223.29 158.641C223.233 158.997 223.101 159.335 222.905 159.628C222.709 159.921 222.454 160.162 222.159 160.332L203.997 170.882C203.533 171.15 202.996 171.231 202.481 171.111C201.966 170.99 201.508 170.675 201.188 170.222Z" fill="#CCCCCC"/>
<path d="M202.427 169.213C202.524 169.345 202.661 169.436 202.814 169.47C202.968 169.505 203.127 169.48 203.265 169.4L221.426 158.85C221.514 158.8 221.591 158.729 221.649 158.642C221.708 158.555 221.747 158.454 221.763 158.348C221.782 158.235 221.777 158.12 221.748 158.01C221.719 157.901 221.667 157.8 221.595 157.716C215.922 150.79 211.831 142.514 209.655 133.556C209.63 133.445 209.581 133.342 209.513 133.255C209.445 133.168 209.36 133.1 209.263 133.055C209.172 133.01 209.073 132.99 208.974 132.994C208.874 132.999 208.777 133.028 208.689 133.08L190.528 143.63C190.391 143.711 190.284 143.841 190.225 143.998C190.167 144.155 190.161 144.33 190.208 144.491C193.094 153.359 197.214 161.696 202.427 169.213Z" fill="white"/>
<path d="M261.522 167.408L247.299 173.268L243.826 162.81C243.365 161.422 243.371 159.901 243.844 158.517C244.317 157.133 245.226 155.975 246.411 155.248C247.609 154.512 249.01 154.264 250.362 154.55C251.713 154.836 252.926 155.637 253.781 156.808L261.522 167.408Z" fill="#6C63FF"/>
<path d="M225.344 208.843C225.045 208.613 224.794 208.317 224.609 207.974C224.423 207.631 224.307 207.25 224.268 206.854C222.446 188.418 223.715 173.989 228.146 162.745C228.927 160.806 230.103 159.083 231.586 157.707C233.068 156.331 234.819 155.338 236.707 154.801L248.205 154.172L248.264 154.203C250.859 155.581 252.975 157.828 254.298 160.612C255.622 163.396 256.082 166.569 255.612 169.659C251.914 180.227 248.818 191.229 251.179 200.105C251.278 200.476 251.307 200.865 251.264 201.249C251.221 201.632 251.107 202.002 250.929 202.337C250.756 202.66 250.524 202.942 250.248 203.164C249.971 203.387 249.655 203.545 249.319 203.63L227.42 209.278C227.065 209.37 226.697 209.378 226.339 209.303C225.981 209.228 225.642 209.071 225.344 208.843Z" fill="#FFB81C"/>
<path d="M244.368 149.516C251.377 149.516 257.059 143.356 257.059 135.757C257.059 128.157 251.377 121.997 244.368 121.997C237.358 121.997 231.676 128.157 231.676 135.757C231.676 143.356 237.358 149.516 244.368 149.516Z" fill="#FFB8B8"/>
<path d="M209.15 146.655L199.259 151.389C198.882 151.568 198.456 151.579 198.073 151.418C197.689 151.256 197.381 150.937 197.214 150.53L196.97 149.929C196.804 149.521 196.794 149.059 196.943 148.643C197.092 148.228 197.386 147.893 197.762 147.713L207.653 142.979C208.029 142.799 208.456 142.789 208.839 142.95C209.222 143.111 209.531 143.43 209.697 143.838L209.942 144.439C210.108 144.847 210.117 145.309 209.969 145.724C209.82 146.14 209.526 146.475 209.15 146.655Z" fill="#CCCCCC"/>
<path d="M212.767 153.938L202.876 158.672C202.5 158.851 202.073 158.862 201.69 158.701C201.307 158.54 200.998 158.22 200.831 157.813L200.587 157.212C200.421 156.804 200.412 156.342 200.56 155.926C200.709 155.511 201.003 155.176 201.379 154.996L211.27 150.262C211.647 150.083 212.073 150.072 212.456 150.233C212.84 150.394 213.148 150.714 213.315 151.121L213.559 151.722C213.725 152.13 213.734 152.592 213.586 153.008C213.437 153.423 213.143 153.758 212.767 153.938Z" fill="#CCCCCC"/>
<path d="M220.395 182.384L198.343 163.524C198.168 163.591 197.989 163.648 197.808 163.695C197.029 163.892 196.221 163.91 195.436 163.747C194.651 163.584 193.907 163.243 193.251 162.747C192.591 162.252 192.036 161.608 191.624 160.861C191.212 160.114 190.951 159.28 190.86 158.415C190.713 157.032 191 155.636 191.676 154.452C192.352 153.268 193.378 152.367 194.586 151.895C195.34 151.602 196.142 151.485 196.941 151.551C197.739 151.618 198.516 151.866 199.22 152.281C199.924 152.695 200.539 153.266 201.025 153.956C201.511 154.647 201.857 155.44 202.04 156.286C202.097 156.554 202.137 156.825 202.159 157.099L224.111 170.829L229.574 167.419L235.626 176.009L227.144 182.563C226.151 183.324 224.958 183.717 223.742 183.685C222.526 183.653 221.353 183.197 220.395 182.384Z" fill="#FFB8B8"/>
<path d="M238.317 178.684L225.734 169.408L231.648 160.328C232.433 159.123 233.586 158.257 234.903 157.883C236.22 157.51 237.616 157.654 238.845 158.289C240.088 158.931 241.079 160.034 241.637 161.399C242.196 162.764 242.286 164.3 241.891 165.73L238.317 178.684Z" fill="#28519E"/>
<path d="M239.714 133.707C236.452 136.128 232.169 138.616 228.837 136.038C226.65 134.346 225.96 131.211 226.848 128.461C228.443 123.515 232.826 121.338 237.017 119.668C242.466 117.499 248.399 115.773 254.024 117.326C259.649 118.88 264.62 124.785 263.605 130.981C262.788 135.964 258.453 140.11 259.068 145.126C259.688 150.175 264.925 152.833 269.549 153.735C274.173 154.638 279.347 154.928 282.67 158.528C286.908 163.121 285.85 171.331 281.861 176.181C277.873 181.03 271.853 183.228 266.021 184.723C258.293 186.703 249.935 187.743 242.596 184.457C235.256 181.171 229.545 172.326 231.671 164.032C232.569 160.528 234.685 157.567 236.729 154.684C238.774 151.802 240.844 148.787 241.624 145.251C242.274 142.304 241.793 138.882 239.99 136.671C239.662 136.284 239.456 135.794 239.401 135.272C239.345 134.75 239.444 134.223 239.683 133.765L239.714 133.707Z" fill="#002C3F"/>
</svg>
