<svg width="80" height="95" viewBox="0 0 80 95" fill="none" xmlns="http://www.w3.org/2000/svg">
<rect x="0.5" y="0.5" width="79" height="94" rx="3.5" fill="#F7F7F7"/>
<g opacity="0.2" clip-path="url(#clip0_953_11108)">
<path d="M40 71.2206C39.3168 71.2206 38.6791 71.0459 38.087 70.7403L32.029 67.2907C31.118 66.8104 31.5735 66.6357 31.8468 66.5484C33.0766 66.1554 33.3043 66.0681 34.5797 65.3694C34.7164 65.2821 34.8986 65.3258 35.0352 65.4131L39.6812 68.0767C39.8634 68.164 40.0911 68.164 40.2277 68.0767L58.4017 57.99C58.5839 57.9027 58.6749 57.728 58.6749 57.5097V37.38C58.6749 37.1617 58.5839 36.987 58.4017 36.8997L40.2277 26.8567C40.0455 26.7693 39.8178 26.7693 39.6812 26.8567L21.5072 36.8997C21.3251 36.987 21.234 37.2053 21.234 37.38V57.5097C21.234 57.6844 21.3251 57.9027 21.5072 57.99L26.472 60.7409C29.1594 62.0509 30.8447 60.5226 30.8447 58.9943V39.1266C30.8447 38.8646 31.0725 38.6026 31.3913 38.6026H33.7143C33.9876 38.6026 34.2609 38.8209 34.2609 39.1266V58.9943C34.2609 62.4439 32.3023 64.4525 28.8861 64.4525C27.8385 64.4525 27.0186 64.4525 24.6957 63.3608L19.913 60.7409C18.7288 60.0859 18 58.8633 18 57.5534V37.4237C18 36.1137 18.7288 34.8911 19.913 34.2361L38.087 24.1494C39.2257 23.5381 40.7743 23.5381 41.913 24.1494L60.087 34.2361C61.2712 34.8911 62 36.1137 62 37.4237V57.5534C62 58.8633 61.2712 60.0859 60.087 60.7409L41.913 70.8276C41.3209 71.0896 40.6377 71.2206 40 71.2206ZM45.6025 57.3787C37.6315 57.3787 35.9917 53.8855 35.9917 50.9162C35.9917 50.6542 36.2195 50.3923 36.5383 50.3923H38.9068C39.1801 50.3923 39.4079 50.5669 39.4079 50.8289C39.7723 53.1432 40.8199 54.2785 45.648 54.2785C49.4741 54.2785 51.1139 53.4488 51.1139 51.4839C51.1139 50.3486 50.6584 49.5189 44.6915 48.9513C39.7267 48.471 36.6294 47.423 36.6294 43.6241C36.6294 40.0872 39.7267 37.9913 44.9193 37.9913C50.7495 37.9913 53.619 39.9126 53.9834 44.1044C53.9834 44.2354 53.9379 44.3664 53.8468 44.4974C53.7557 44.5848 53.619 44.6721 53.4824 44.6721H51.1139C50.8861 44.6721 50.6584 44.4974 50.6128 44.2791C50.0662 41.8775 48.6542 41.0915 44.9193 41.0915C40.7288 41.0915 40.2277 42.4888 40.2277 43.5368C40.2277 44.8031 40.8199 45.1961 46.4679 45.8947C52.0704 46.5934 54.7122 47.5977 54.7122 51.3529C54.6667 55.1954 51.3872 57.3787 45.6025 57.3787Z" fill="#539E43"/>
</g>
<rect x="0.5" y="0.5" width="79" height="94" rx="3.5" stroke="#E1E1E1"/>
<defs>
<clipPath id="clip0_953_11108">
<rect width="44" height="48" fill="white" transform="translate(18 23.5)"/>
</clipPath>
</defs>
</svg>
