<svg width="80" height="95" viewBox="0 0 80 95" fill="none" xmlns="http://www.w3.org/2000/svg">
<rect x="0.5" y="0.5" width="79" height="94" rx="3.5" fill="#F7F7F7"/>
<g opacity="0.2" clip-path="url(#clip0_953_11111)">
<path d="M39.9732 76.851L22.0669 72.1242L18.0765 29.5657H61.9235L57.9289 72.1175L39.9732 76.851Z" fill="#264DE4"/>
<path d="M54.5091 69.4079L57.9227 33.0454H40V73.2329L54.5091 69.4079Z" fill="#2965F1"/>
<path d="M27.2244 48.8298L27.7163 54.0494H40.0001V48.8298H27.2244Z" fill="#EBEBEB"/>
<path d="M26.2357 38.2651L26.7347 43.4848H40V38.2651H26.2357Z" fill="#EBEBEB"/>
<path d="M40 62.3857L39.976 62.3917L33.8626 60.8221L33.4718 56.6592H27.9615L28.7306 64.8547L39.9748 67.8229L40 67.8163V62.3857Z" fill="#EBEBEB"/>
<path d="M28.3956 18H35.044V20.6437H31.1758V23.2874H35.044V25.9311H28.3956V18Z" fill="black"/>
<path d="M36.3737 18H43.022V20.2989H39.1539V20.7586H43.022V26.046H36.3737V23.6322H40.2418V23.1724H36.3737V18Z" fill="black"/>
<path d="M44.3517 18H51V20.2989H47.1319V20.7586H51V26.046H44.3517V23.6322H48.2198V23.1724H44.3517V18Z" fill="black"/>
<path d="M52.7406 48.8298L53.7316 38.2651H39.9811V43.4848H47.7159L47.2164 48.8298H39.9811V54.0494H46.7404L46.1032 60.8188L39.9811 62.3901V67.8205L51.2342 64.8548L51.3168 63.973L52.6067 50.2314L52.7406 48.8298Z" fill="white"/>
</g>
<rect x="0.5" y="0.5" width="79" height="94" rx="3.5" stroke="#E1E1E1"/>
<defs>
<clipPath id="clip0_953_11111">
<rect width="44" height="59" fill="white" transform="translate(18 18)"/>
</clipPath>
</defs>
</svg>
