<svg width="80" height="95" viewBox="0 0 80 95" fill="none" xmlns="http://www.w3.org/2000/svg">
<rect x="0.5" y="0.5" width="79" height="94" rx="3.5" fill="#F7F7F7"/>
<g opacity="0.2" clip-path="url(#clip0_953_11109)">
<path d="M24.3571 61.0762C23.8314 61.5662 23.0977 61.6919 22.4596 61.4012L19.1275 59.8762C18.448 59.567 18.004 58.8443 18 58.0412V36.7112C18.004 35.908 18.448 35.1854 19.1275 34.8762L22.4596 33.3762C23.0977 33.0855 23.8314 33.2112 24.3571 33.7012L25.1042 34.3762C24.7953 34.1339 24.388 34.1009 24.0497 34.2907C23.7113 34.4806 23.499 34.8612 23.5 35.2762V59.4762C23.499 59.8912 23.7113 60.2718 24.0497 60.4616C24.388 60.6514 24.7953 60.6184 25.1042 60.3762L24.3571 61.0762Z" fill="#52218A"/>
<path d="M19.1275 59.8762C18.448 59.567 18.004 58.8443 18 58.0412V57.8762C18.0046 58.3485 18.2724 58.7701 18.6761 58.9408C19.0799 59.1115 19.5382 58.9968 19.8333 58.6512L48.25 24.3762C49.0746 23.4811 50.3263 23.2488 51.3758 23.7962L60.4417 28.5562C61.3946 29.056 62.0005 30.1077 62 31.2612V31.3762C61.9994 30.6443 61.6125 29.9781 61.0061 29.665C60.3997 29.3519 59.6822 29.4477 59.1629 29.9112L25.1042 60.3762L24.3571 61.0762C23.8314 61.5662 23.0977 61.6919 22.4596 61.4012L19.1275 59.8762Z" fill="#6C33AF"/>
<path d="M19.1275 34.8763C18.448 35.1855 18.004 35.9081 18 36.7113V36.8763C18.0046 36.4039 18.2724 35.9823 18.6761 35.8116C19.0799 35.6409 19.5382 35.7557 19.8333 36.1013L48.25 70.3763C49.0746 71.2714 50.3263 71.5036 51.3758 70.9563L60.4417 66.1963C61.3946 65.6964 62.0005 64.6448 62 63.4912V63.3763C61.9994 64.1082 61.6125 64.7743 61.0061 65.0874C60.3997 65.4006 59.6822 65.3047 59.1629 64.8413L25.1042 34.3763L24.3571 33.6763C23.8267 33.1947 23.0934 33.0787 22.4596 33.3763L19.1275 34.8763Z" fill="#854CC7"/>
<path d="M51.3758 70.9559C50.3263 71.5033 49.0746 71.271 48.25 70.3759C48.7118 70.8761 49.404 71.0246 50.0051 70.7525C50.6062 70.4804 50.9985 69.8409 51 69.1309V25.6309C51.0022 24.9191 50.6112 24.276 50.0093 24.0013C49.4074 23.7266 48.713 23.8744 48.25 24.3759C49.0746 23.4808 50.3263 23.2486 51.3758 23.7959L60.4417 28.5509C61.3946 29.0508 62.0005 30.1024 62 31.2559V63.4959C62.0005 64.6494 61.3946 65.7011 60.4417 66.2009L51.3758 70.9559Z" fill="#B179F1"/>
<path d="M49.5746 71.1762C50.1805 71.327 50.8155 71.2495 51.3758 70.9562L60.4417 66.2012C61.3946 65.7013 62.0005 64.6497 62 63.4962V31.2562C62.0005 30.1027 61.3946 29.051 60.4417 28.5512L51.3758 23.7962C50.7344 23.4598 49.9984 23.4078 49.3225 23.6512C48.9183 23.7989 48.5512 24.0471 48.25 24.3762L33.6383 42.0062L25.1042 34.3762L24.3571 33.6762C23.901 33.2508 23.283 33.0958 22.7025 33.2612C22.6187 33.2814 22.5373 33.3115 22.4596 33.3512L19.1275 34.8762C18.4916 35.1626 18.0563 35.8132 18 36.5612C18 36.6112 18 36.6612 18 36.7112V58.0412C18 58.0912 18 58.1412 18 58.1912C18.0563 58.9391 18.4916 59.5898 19.1275 59.8762L22.4596 61.3762C22.5373 61.4158 22.6187 61.446 22.7025 61.4662C23.283 61.6315 23.901 61.4765 24.3571 61.0512L25.1042 60.3762L33.6383 52.7462L48.25 70.3762C48.6142 70.7728 49.0731 71.05 49.5746 71.1762ZM51 37.2162L39.6379 47.3762L51 57.5362V37.2162ZM23.5 40.5112L29.1879 47.3762L23.5 54.2412V40.5112Z" fill="url(#paint0_linear_953_11109)" fill-opacity="0.25"/>
</g>
<rect x="0.5" y="0.5" width="79" height="94" rx="3.5" stroke="#E1E1E1"/>
<defs>
<linearGradient id="paint0_linear_953_11109" x1="40" y1="23.5012" x2="40" y2="71.2512" gradientUnits="userSpaceOnUse">
<stop stop-color="white"/>
<stop offset="1" stop-color="white" stop-opacity="0"/>
</linearGradient>
<clipPath id="clip0_953_11109">
<rect width="44" height="48" fill="white" transform="translate(18 23.5)"/>
</clipPath>
</defs>
</svg>
