<svg width="90" height="113" viewBox="0 0 90 113" fill="none" xmlns="http://www.w3.org/2000/svg">
<rect x="0.5" y="5.5" width="79" height="94" rx="3.5" fill="white"/>
<path d="M76 0C71.032 0 67 4.032 67 9C67 13.968 71.032 18 76 18C80.968 18 85 13.968 85 9C85 4.032 80.968 0 76 0ZM74.2 13.5L69.7 9L70.969 7.731L74.2 10.953L81.031 4.122L82.3 5.4L74.2 13.5Z" fill="#068B0D"/>
<g clip-path="url(#clip0_953_11106)">
<path d="M77.4961 83L75.9618 87.524L75.8567 87.8332L75.6787 88.3585L75.1646 89.8741L74.5008 87.8332L72.9284 83H77.4961Z" fill="#CD3414"/>
<path d="M71.899 92.7308V88.7856C71.899 88.2599 72.3253 87.8333 72.8517 87.8333H83.602C84.128 87.8333 84.5547 88.2593 84.5547 88.7856V92.8669H82.3775V90.8266C82.3775 90.3008 81.9513 89.8742 81.4248 89.8742H75.1651C74.6392 89.8742 74.2124 90.3002 74.2124 90.8266V92.1868L71.899 92.7308Z" fill="#FCAB28"/>
<path d="M75.9617 87.524L75.8567 87.8332L75.6787 88.3585L75.6728 88.3397L75.5082 87.8332L73.939 83H74.4928L75.9521 87.4945L75.9617 87.524Z" fill="#FFCE45"/>
<path d="M86.0485 109.733C90.4061 105.377 90.4061 98.314 86.0485 93.9578C81.6909 89.6016 74.6259 89.6016 70.2683 93.9578C65.9107 98.314 65.9107 105.377 70.2683 109.733C74.6259 114.089 81.6909 114.089 86.0485 109.733Z" fill="#FCAB28"/>
<path d="M67 101.845C67 102.452 67.0493 103.048 67.1426 103.628C68.7628 104.544 70.6344 105.068 72.6282 105.068C78.7909 105.068 83.7865 100.074 83.7865 93.9131C83.7865 93.3059 83.7371 92.7104 83.6439 92.13C82.0237 91.2141 80.1521 90.6904 78.1583 90.6904C71.9956 90.6904 67 95.6844 67 101.845Z" fill="#FFCE45"/>
<path d="M85.0372 83L82.9753 87.8332L82.1046 89.8741H75.1646L75.6728 88.3397L75.8401 87.8332L75.9521 87.4945L77.4398 83H85.0372Z" fill="#FE5629"/>
<path d="M83.6127 95.8833C82.1738 94.5659 80.2582 93.7615 78.1583 93.7615C73.6993 93.7615 70.072 97.3877 70.072 101.845C70.072 102.924 70.2843 103.955 70.6697 104.896C71.8765 107.846 74.7786 109.929 78.1583 109.929C82.6172 109.929 86.2446 106.303 86.2446 101.845C86.2446 99.4871 85.2291 97.3615 83.6127 95.8833ZM78.1583 109.657C74.9517 109.657 72.1902 107.716 70.9871 104.948C70.5732 103.997 70.3438 102.947 70.3438 101.845C70.3438 97.5378 73.8495 94.0332 78.1583 94.0332C80.2475 94.0332 82.1481 94.8575 83.5522 96.1974C85.0426 97.6209 85.9728 99.6264 85.9728 101.845C85.9728 106.153 82.4671 109.657 78.1583 109.657Z" fill="#FCAB28"/>
<path d="M69.5176 97.356C69.5176 97.356 68.633 95.5193 70.5384 94.6355C70.5384 94.6355 70.6746 96.5403 69.5176 97.356Z" fill="#FFE266"/>
<path d="M69.5857 98.1041C69.5857 98.1041 69.4496 96.7439 71.6267 96.4036C71.6267 96.4036 71.2863 97.6957 69.5857 98.1041Z" fill="#FFE266"/>
<path d="M71.1024 95.368C71.1024 95.368 70.6194 93.3877 72.6663 92.9187C72.6663 92.9187 72.4036 94.8101 71.1024 95.368Z" fill="#FFE266"/>
<path d="M71.0134 96.1141C71.0134 96.1141 71.163 94.7549 73.3638 94.8749C73.3638 94.8749 72.7623 96.0685 71.0134 96.1141Z" fill="#FFE266"/>
<path d="M72.9504 93.7784C72.9504 93.7784 72.8513 91.7423 74.9507 91.6699C74.9507 91.6699 74.3342 93.4772 72.9504 93.7784Z" fill="#FFE266"/>
<path d="M72.7215 94.4939C72.7215 94.4939 73.1263 93.1877 75.2638 93.7226C75.2638 93.7226 74.4467 94.7806 72.7215 94.4939Z" fill="#FFE266"/>
<path d="M75.0251 92.564C75.0251 92.564 75.5345 90.5901 77.5605 91.1432C77.5605 91.1432 76.4357 92.6862 75.0251 92.564Z" fill="#FFE266"/>
<path d="M74.5941 93.1797C74.5941 93.1797 75.3677 92.0526 77.2511 93.1969C77.2511 93.1969 76.1574 93.9649 74.5941 93.1797Z" fill="#FFE266"/>
<path d="M77.428 92.0767C77.428 92.0767 78.511 90.3499 80.2748 91.4898C80.2748 91.4898 78.7356 92.6202 77.428 92.0767Z" fill="#FFE266"/>
<path d="M76.8314 92.5329C76.8314 92.5329 77.91 91.6925 79.3586 93.3535C79.3586 93.3535 78.0837 93.7543 76.8314 92.5329Z" fill="#FFE266"/>
<path d="M79.9484 92.2757C79.9484 92.2757 81.4785 90.9289 82.8445 92.5239C82.8445 92.5239 81.0469 93.1686 79.9484 92.2757Z" fill="#FFE266"/>
<path d="M79.246 92.5431C79.246 92.5431 80.5199 92.0452 81.435 94.0492C81.435 94.0492 80.0985 94.0706 79.246 92.5431Z" fill="#FFE266"/>
<path d="M82.2907 93.2646C82.2907 93.2646 84.0674 92.265 85.0721 94.1092C85.0721 94.1092 83.1796 94.3665 82.2907 93.2646Z" fill="#FFE266"/>
<path d="M81.5482 93.3803C81.5482 93.3803 82.8976 93.1579 83.3758 95.3081C83.3758 95.3081 82.0639 95.0514 81.5482 93.3803Z" fill="#FFE266"/>
<path d="M84.3204 94.6151C84.3204 94.6151 86.2548 93.9704 86.8911 95.9711C86.8911 95.9711 84.9842 95.865 84.3204 94.6151Z" fill="#FFE266"/>
<path d="M83.5693 94.5879C83.5693 94.5879 84.9364 94.6249 84.9986 96.8271C84.9986 96.8271 83.7591 96.3265 83.5693 94.5879Z" fill="#FFE266"/>
<path d="M86.05 96.284C86.05 96.284 88.0883 96.2417 88.1028 98.3415C88.1028 98.3415 86.3132 97.6748 86.05 96.284Z" fill="#FFE266"/>
<path d="M85.3407 96.0354C85.3407 96.0354 86.6354 96.476 86.0414 98.5978C86.0414 98.5978 85.0061 97.7521 85.3407 96.0354Z" fill="#FFE266"/>
<path d="M87.1677 98.4661C87.1677 98.4661 89.1235 99.0427 88.501 101.048C88.501 101.048 86.9972 99.8708 87.1677 98.4661Z" fill="#FFE266"/>
<path d="M86.5673 98.0142C86.5673 98.0142 87.6674 98.8261 86.459 100.668C86.459 100.668 85.7288 99.5491 86.5673 98.0142Z" fill="#FFE266"/>
<path d="M87.831 100.8C87.831 100.8 89.561 101.878 88.4245 103.644C88.4245 103.644 87.2906 102.107 87.831 100.8Z" fill="#FFE266"/>
<path d="M87.3731 100.204C87.3731 100.204 88.2159 101.28 86.5582 102.732C86.5582 102.732 86.154 101.458 87.3731 100.204Z" fill="#FFE266"/>
<path d="M87.5554 103.327C87.5554 103.327 89.0233 104.742 87.5441 106.233C87.5441 106.233 86.7544 104.494 87.5554 103.327Z" fill="#FFE266"/>
<path d="M87.2316 102.649C87.2316 102.649 87.832 103.877 85.909 104.952C85.909 104.952 85.7787 103.622 87.2316 102.649Z" fill="#FFE266"/>
<path d="M86.844 105.658C86.844 105.658 88.017 107.325 86.2821 108.509C86.2821 108.509 85.8361 106.652 86.844 105.658Z" fill="#FFE266"/>
<path d="M86.6547 104.931C86.6547 104.931 87.0118 106.251 84.9193 106.942C84.9193 106.942 85.0437 105.611 86.6547 104.931Z" fill="#FFE266"/>
<path d="M85.7411 107.793C85.7411 107.793 86.3668 109.734 84.359 110.349C84.359 110.349 84.4839 108.444 85.7411 107.793Z" fill="#FFE266"/>
<path d="M85.7755 107.042C85.7755 107.042 85.7245 108.409 83.5216 108.449C83.5216 108.449 84.0347 107.215 85.7755 107.042Z" fill="#FFE266"/>
<path d="M83.9714 109.49C83.9714 109.49 83.9805 111.528 81.88 111.508C81.88 111.508 82.5759 109.73 83.9714 109.49Z" fill="#FFE266"/>
<path d="M84.2314 108.785C84.2314 108.785 83.7693 110.072 81.6575 109.443C81.6575 109.443 82.5201 108.423 84.2314 108.785Z" fill="#FFE266"/>
<path d="M82.1952 110.813C82.1952 110.813 81.7368 112.799 79.6969 112.298C79.6969 112.298 80.782 110.727 82.1952 110.813Z" fill="#FFE266"/>
<path d="M82.6097 110.186C82.6097 110.186 81.865 111.333 79.9532 110.238C79.9532 110.238 81.027 109.442 82.6097 110.186Z" fill="#FFE266"/>
<path d="M79.7151 111.374C79.7151 111.374 78.8541 113.221 76.9627 112.308C76.9627 112.308 78.3507 110.996 79.7151 111.374Z" fill="#FFE266"/>
<path d="M80.2513 110.847C80.2513 110.847 79.2846 111.814 77.642 110.345C77.642 110.345 78.8579 109.79 80.2513 110.847Z" fill="#FFE266"/>
<path d="M77.2785 111.459C77.2785 111.459 76.0824 113.11 74.399 111.855C74.399 111.855 76.0106 110.83 77.2785 111.459Z" fill="#FFE266"/>
<path d="M77.9047 111.043C77.9047 111.043 76.7719 111.81 75.438 110.056C75.438 110.056 76.737 109.741 77.9047 111.043Z" fill="#FFE266"/>
<path d="M74.8997 111.11C74.8997 111.11 73.2678 112.332 72.0325 110.634C72.0325 110.634 73.8757 110.133 74.8997 111.11Z" fill="#FFE266"/>
<path d="M75.6208 110.899C75.6208 110.899 74.3121 111.295 73.5578 109.225C73.5578 109.225 74.8917 109.309 75.6208 110.899Z" fill="#FFE266"/>
<path d="M72.7193 109.988C72.7193 109.988 70.7941 110.659 70.1304 108.667C70.1304 108.667 72.0384 108.748 72.7193 109.988Z" fill="#FFE266"/>
<path d="M73.4709 110.006C73.4709 110.006 72.1033 109.987 72.0116 107.786C72.0116 107.786 73.2575 108.27 73.4709 110.006Z" fill="#FFE266"/>
<path d="M71.0005 108.607C71.0005 108.607 68.9702 108.796 68.8046 106.703C68.8046 106.703 70.6376 107.239 71.0005 108.607Z" fill="#FFE266"/>
<path d="M71.7259 108.804C71.7259 108.804 70.4027 108.458 70.8423 106.299C70.8423 106.299 71.9355 107.068 71.7259 108.804Z" fill="#FFE266"/>
<path d="M69.6886 106.43C69.6886 106.43 67.6637 106.193 67.9366 104.112C67.9366 104.112 69.6184 105.017 69.6886 106.43Z" fill="#FFE266"/>
<path d="M70.3572 106.773C70.3572 106.773 69.1353 106.159 70.014 104.139C70.014 104.139 70.9238 105.119 70.3572 106.773Z" fill="#FFE266"/>
<path d="M68.8415 104.144C68.8415 104.144 66.8981 103.528 67.5613 101.536C67.5613 101.536 69.041 102.743 68.8415 104.144Z" fill="#FFE266"/>
<path d="M69.4329 104.608C69.4329 104.608 68.3494 103.774 69.5953 101.957C69.5953 101.957 70.3025 103.091 69.4329 104.608Z" fill="#FFE266"/>
<path d="M68.4255 101.777C68.4255 101.777 66.7523 100.612 67.9762 98.906C67.9762 98.906 69.0313 100.498 68.4255 101.777Z" fill="#FFE266"/>
<path d="M68.8527 102.396C68.8527 102.396 68.0652 101.278 69.7942 99.9114C69.7942 99.9114 70.1335 101.204 68.8527 102.396Z" fill="#FFE266"/>
<path d="M68.8056 99.3556C68.8056 99.3556 67.5634 97.7391 69.2469 96.4834C69.2469 96.4834 69.7707 98.3196 68.8056 99.3556Z" fill="#FFE266"/>
<path d="M69.026 100.074C69.026 100.074 68.6137 98.7702 70.6751 97.991C70.6751 97.991 70.607 99.3255 69.026 100.074Z" fill="#FFE266"/>
<path d="M78.9522 83L77.2184 87.8332L76.4866 89.8741H75.9296L76.6614 87.8332L78.3952 83H78.9522Z" fill="#FFCE45"/>
<path d="M84.1692 83L82.1449 87.8332L81.2903 89.8741H80.7274L81.5819 87.8332L83.6063 83H84.1692Z" fill="#FFCE45"/>
<g opacity="0.5">
<g style="mix-blend-mode:multiply" opacity="0.75">
<path d="M83.0997 100.769L83.4428 101.146L84.2008 100.455C84.0598 100.245 83.201 99.0689 81.5551 99.0689C80.7697 99.0673 80.0132 99.3648 79.439 99.9007C78.8552 100.435 78.4129 101.172 77.9867 101.884C77.6028 102.524 77.2072 103.181 76.7204 103.675C76.3349 104.066 75.8047 104.262 75.1447 104.262C73.9915 104.262 73.056 103.328 73.056 102.174C73.056 101.021 73.991 100.086 75.1447 100.086C76.1178 100.086 76.767 100.799 76.9997 101.097L77.5578 100.197C76.4684 98.8679 74.5078 98.6734 73.1782 99.7624C71.8486 100.851 71.654 102.811 72.7434 104.141C73.3332 104.86 74.214 105.278 75.1447 105.28C76.0733 105.28 76.8689 104.973 77.4441 104.388C78.0194 103.804 78.4451 103.096 78.8595 102.404C79.2739 101.713 79.6529 101.081 80.1306 100.645C80.9734 99.8578 82.2955 99.9028 83.0825 100.746C83.0884 100.752 83.0943 100.758 83.1002 100.765V100.768L83.0997 100.769Z" fill="#5B5B5B"/>
<path d="M81.3176 101.903V102.921H83.5076L83.4803 102.986C83.1554 103.761 82.3957 104.265 81.5551 104.263C81.2908 104.263 80.8592 104.171 80.3075 103.731C80.1252 103.585 79.9558 103.424 79.8004 103.25L79.2326 104.169C79.535 104.524 80.3258 105.282 81.5572 105.282C82.3308 105.297 83.0819 105.02 83.6604 104.506C84.1451 104.086 84.4834 103.525 84.6281 102.901C84.7101 102.574 84.7359 102.237 84.7037 101.902L81.3181 101.903H81.3176Z" fill="#5B5B5B"/>
</g>
<path d="M82.9924 100.555L83.3355 100.932L84.0936 100.241C83.9526 100.03 83.0937 98.8545 81.4479 98.8545C80.6624 98.8529 79.906 99.1504 79.3318 99.6863C78.748 100.221 78.3057 100.958 77.8794 101.669C77.4956 102.309 77.0999 102.967 76.6131 103.461C76.2277 103.851 75.6974 104.048 75.0375 104.048C73.8843 104.048 72.9487 103.113 72.9487 101.96C72.9487 100.806 73.8837 99.8718 75.0375 99.8718C76.0105 99.8718 76.6598 100.585 76.8924 100.883L77.4505 99.9827C76.3611 98.6536 74.4006 98.459 73.071 99.5481C71.7414 100.637 71.5468 102.597 72.6362 103.926C73.2259 104.646 74.1068 105.064 75.0375 105.066C75.966 105.066 76.7616 104.759 77.3369 104.174C77.9121 103.589 78.3378 102.882 78.7522 102.19C79.1667 101.498 79.5457 100.867 80.0234 100.43C80.8662 99.6435 82.1882 99.6885 82.9753 100.532C82.9812 100.538 82.9871 100.544 82.993 100.55V100.554L82.9924 100.555Z" fill="white"/>
<path d="M81.2103 101.689V102.707H83.4004L83.373 102.772C83.0482 103.547 82.2885 104.051 81.4478 104.049C81.1835 104.049 80.752 103.957 80.2003 103.516C80.018 103.371 79.8486 103.21 79.6931 103.036L79.1254 103.955C79.4277 104.31 80.2185 105.067 81.45 105.067C82.2236 105.083 82.9747 104.806 83.5532 104.291C84.0378 103.872 84.3761 103.31 84.5209 102.687C84.6029 102.36 84.6286 102.022 84.5965 101.688L81.2109 101.689H81.2103Z" fill="white"/>
</g>
</g>
<path d="M18.0172 37.0273L39.6405 29.3618L61.8459 36.891L58.2506 65.3553L39.6405 75.6099L21.3214 65.4916L18.0172 37.0273Z" fill="#E23237"/>
<path d="M61.8459 36.891L39.6405 29.3618V75.6099L58.2506 65.3723L61.8459 36.891Z" fill="#B52E31"/>
<path d="M39.6747 34.7617L26.2008 64.5888L31.2343 64.5036L33.9393 57.7751H39.6919H39.709H46.0265L48.9884 64.5888L53.7992 64.674L39.6747 34.7617ZM39.709 44.318L44.2631 53.789H39.8973H39.6747H35.7028L39.709 44.318Z" fill="white"/>
<rect x="0.5" y="5.5" width="79" height="94" rx="3.5" stroke="#E1E1E1"/>
<defs>
<clipPath id="clip0_953_11106">
<rect width="22.3171" height="30" fill="white" transform="translate(67 83)"/>
</clipPath>
</defs>
</svg>
