<svg width="80" height="95" viewBox="0 0 80 95" fill="none" xmlns="http://www.w3.org/2000/svg">
<rect x="0.5" y="0.5" width="79" height="94" rx="3.5" fill="#F7F7F7"/>
<g opacity="0.2" clip-path="url(#clip0_953_11107)">
<path d="M61.9259 37.6746C61.9256 36.8777 61.748 36.1735 61.389 35.5691C61.0363 34.9747 60.5081 34.4766 59.7997 34.0827C53.9516 30.8456 48.0979 27.6184 42.2517 24.3779C40.6756 23.5044 39.1475 23.5363 37.5831 24.4223C35.2554 25.7402 23.6014 32.1499 20.1287 34.0809C18.6985 34.8757 18.0026 36.0921 18.0022 37.6731C18 44.1832 18.0022 50.6931 18 57.2034C18 57.9828 18.1703 58.6734 18.5136 59.2687C18.8664 59.881 19.402 60.3928 20.1268 60.7956C23.5997 62.7266 35.2552 69.1358 37.5824 70.454C39.1475 71.3406 40.6756 71.3722 42.2523 70.4984C48.0986 67.2578 53.9526 64.0307 59.8015 60.7936C60.5263 60.391 61.0619 59.8788 61.4148 59.267C61.7575 58.6717 61.9282 57.9812 61.9282 57.2016C61.9282 57.2016 61.9282 44.1849 61.9259 37.6746Z" fill="#A179DC"/>
<path d="M40.0313 47.3748L18.5135 59.2686C18.8664 59.8809 19.402 60.3928 20.1268 60.7955C23.5997 62.7265 35.2552 69.1358 37.5824 70.454C39.1475 71.3405 40.6756 71.3722 42.2522 70.4983C48.0986 67.2577 53.9526 64.0307 59.8015 60.7935C60.5263 60.3909 61.0619 59.8788 61.4148 59.267L40.0313 47.3748Z" fill="#280068"/>
<path d="M61.9259 37.6747C61.9255 36.8777 61.748 36.1735 61.389 35.5691L40.0312 47.3748L61.4147 59.2671C61.7575 58.6717 61.9278 57.9812 61.9281 57.2016C61.9281 57.2016 61.9281 44.1849 61.9259 37.6747Z" fill="#390091"/>
<path d="M52.7002 42.9285V45.1516H55.016V42.9285H56.1739V45.1516H58.4897V46.2632H56.1739V48.4864H58.4897V49.5979H56.1739V51.8211H55.016V49.5979H52.7002V51.8211H51.5424V49.5979H49.2266V48.4864H51.5424V46.2632H49.2266V45.1516H51.5424V42.9285H52.7002ZM55.016 46.2632H52.7002V48.4864H55.016V46.2632Z" fill="white"/>
<path d="M40.0785 31.7632C46.1189 31.7632 51.3926 34.9124 54.2173 39.5934L54.1897 39.5484L47.0829 43.4767C45.6827 41.2008 43.1158 39.6649 40.1713 39.6333L40.0785 39.6328C35.5882 39.6328 31.9478 43.1274 31.9478 47.4381C31.9478 48.8478 32.3393 50.1692 33.0201 51.3106C34.4216 53.6594 37.0562 55.2436 40.0785 55.2436C43.1195 55.2436 45.7691 53.6392 47.1635 51.2653L47.1296 51.3223L54.2257 55.2688C51.432 59.9101 46.2305 63.0497 40.2604 63.1122L40.0785 63.1132C34.0191 63.1132 28.7304 59.9446 25.9128 55.2388C24.5373 52.9415 23.7503 50.2782 23.7503 47.4381C23.7503 38.7812 31.0605 31.7632 40.0785 31.7632Z" fill="white"/>
</g>
<rect x="0.5" y="0.5" width="79" height="94" rx="3.5" stroke="#E1E1E1"/>
<defs>
<clipPath id="clip0_953_11107">
<rect width="44" height="48" fill="white" transform="translate(18 23.5)"/>
</clipPath>
</defs>
</svg>
