<svg width="80" height="95" viewBox="0 0 80 95" fill="none" xmlns="http://www.w3.org/2000/svg">
<rect x="0.5" y="0.5" width="79" height="94" rx="3.5" fill="#F7F7F7"/>
<g opacity="0.2" clip-path="url(#clip0_953_11110)">
<path d="M61.7406 29.9106L57.7793 71.6442L39.9732 76.2867L22.2161 71.6507L18.259 29.9106H61.7406Z" fill="#E44D26"/>
<path d="M39.9999 72.7381L54.3881 68.9867L57.7733 33.3235H39.9999V72.7381Z" fill="#F16529"/>
<path d="M32.2992 43.5619H39.9998V38.4426H26.3502L26.4805 39.816L27.8184 53.9233H39.9998V48.8041H32.7967L32.2992 43.5619Z" fill="#EBEBEB"/>
<path d="M33.526 56.4832H28.0616L28.8243 64.5211L39.9747 67.4322L39.9998 67.4257V62.0995L39.9759 62.1055L33.9135 60.566L33.526 56.4832Z" fill="#EBEBEB"/>
<path d="M22.3046 18.5674H25.0708V21.1377H27.6013V18.5674H30.3677V26.3509H27.6015V23.7445H25.071V26.3509H22.3047V18.5674H22.3046Z" fill="black"/>
<path d="M34.0055 21.1485H31.5702V18.5674H39.2084V21.1485H36.772V26.3509H34.0056V21.1485H34.0055Z" fill="black"/>
<path d="M40.4207 18.5674H43.3051L45.0795 21.3023L46.852 18.5674H49.7376V26.3509H46.9827V22.493L45.0795 25.2604H45.0319L43.1274 22.493V26.3509H40.4207V18.5674Z" fill="black"/>
<path d="M51.1144 18.5674H53.8815V23.7781H57.7717V26.3509H51.1144V18.5674Z" fill="black"/>
<path d="M39.981 53.9234H46.6839L46.0521 60.5627L39.981 62.1037V67.4297L51.1403 64.5211L51.2222 63.6562L52.5013 50.1789L52.6341 48.8042H39.981V53.9234Z" fill="white"/>
<path d="M39.981 43.5494V43.5619H53.1295L53.2387 42.4113L53.4867 39.816L53.6169 38.4426H39.981V43.5494Z" fill="white"/>
</g>
<rect x="0.5" y="0.5" width="79" height="94" rx="3.5" stroke="#E1E1E1"/>
<defs>
<clipPath id="clip0_953_11110">
<rect width="44" height="59" fill="white" transform="translate(18 18)"/>
</clipPath>
</defs>
</svg>
